<svg width="80" height="80" viewBox="0 0 80 80" fill="none" xmlns="http://www.w3.org/2000/svg">
<rect width="80" height="80" rx="16" fill="#F3E9FF"/>
<g clip-path="url(#clip0_820:3646)">
<path d="M33.3659 39.6001C32.7185 39.6001 32.1937 40.1249 32.1937 40.7723C32.2555 42.3272 34.4766 42.3268 34.5381 40.7723C34.5381 40.1249 34.0133 39.6001 33.3659 39.6001V39.6001Z" fill="#913AFF"/>
<path d="M45.9974 39.6001C45.35 39.6001 44.8252 40.1249 44.8252 40.7723C44.8869 42.3272 47.1081 42.3268 47.1696 40.7723C47.1696 40.1249 46.6447 39.6001 45.9974 39.6001V39.6001Z" fill="#913AFF"/>
<path d="M51.7902 43.5934C52.8294 41.9823 52.8386 39.712 51.8306 38.0875V27.5084C51.8305 23.3683 48.4623 20 44.3222 20C43.6748 20 43.15 20.5248 43.15 21.1722V29.5748C41.2865 27.7951 38.1191 27.7136 36.1782 29.4015V21.1722C36.1782 20.5248 35.6533 20 35.006 20C30.8658 20 27.4976 23.3683 27.4976 27.5084V38.0993C26.3946 39.879 26.5377 42.3918 27.8465 44.0274C26.6844 45.4979 26.4173 47.6569 27.1987 49.3781V52.6171C27.1987 56.688 30.5107 60 34.5817 60H44.6897C48.7607 60 52.0726 56.688 52.0726 52.6171V50.5852C53.7482 48.6173 53.6095 45.4067 51.7902 43.5934V43.5934ZM49.4862 27.5084V32.23C48.5255 31.0911 47.0939 30.3625 45.4944 30.3472V22.4785C47.7791 23.0108 49.4862 25.064 49.4862 27.5084ZM33.8338 22.4785V30.3475C32.2332 30.3647 30.8014 31.0961 29.842 32.238V27.5084C29.842 25.064 31.5491 23.0108 33.8338 22.4785V22.4785ZM39.868 56.2069C39.8852 56.2083 39.9023 56.2083 39.9194 56.2069H41.8904C41.2377 58.1256 38.5154 58.1243 37.8635 56.2069H39.868ZM43.4168 53.8602H41.0659V49.5877L42.0477 48.5286C42.4878 48.0538 42.4597 47.3121 41.985 46.872C41.51 46.4317 40.7686 46.4601 40.3285 46.9347L39.8616 47.4382L39.3262 46.9027C38.8685 46.445 38.1263 46.445 37.6685 46.9027C37.2107 47.3604 37.2107 48.1027 37.6685 48.5604L38.7214 49.6134V53.8602H36.337C35.5525 53.8602 34.9142 53.2219 34.9142 52.4374V48.2855C35.1875 41.7004 44.5685 41.7054 44.8394 48.2855V52.4374C44.8396 53.2219 44.2013 53.8602 43.4168 53.8602V53.8602ZM50.0652 49.316C49.8492 49.5353 49.7282 49.8308 49.7282 50.1385V52.6171C49.7282 55.3954 47.4679 57.6556 44.6896 57.6556H43.8066C44.0642 57.1812 44.2371 56.6548 44.308 56.0971C45.9563 55.6956 47.1839 54.2075 47.1839 52.4374V48.2855C46.7814 38.5895 32.9688 38.5969 32.57 48.2855V52.4374C32.57 54.2075 33.7975 55.6956 35.4459 56.0971C35.5168 56.6548 35.6897 57.1812 35.9472 57.6556H34.5816C31.8033 57.6556 29.543 55.3954 29.543 52.6171V49.1149C29.543 48.9301 29.4993 48.7478 29.4155 48.5831C28.779 47.3702 29.1236 45.7832 30.2108 44.9449C30.7957 44.4993 30.7958 43.5555 30.2108 43.1099C28.5617 41.8382 28.7978 39.1831 30.6375 38.2147C31.162 37.9297 31.3886 37.2959 31.1635 36.7429C30.1507 34.2333 32.7945 31.7934 35.2135 33.0039C35.5078 33.1522 35.851 33.1697 36.1589 33.0524C36.4668 32.9349 36.711 32.6933 36.8318 32.3867C37.8183 29.8746 41.3983 29.928 42.3354 32.4465C42.454 32.7683 42.7076 33.022 43.0294 33.1409C43.3511 33.2595 43.7088 33.2315 44.008 33.064C46.4324 31.7221 49.204 34.1725 48.1713 36.7429C47.9462 37.2959 48.1728 37.9296 48.6973 38.2147C49.091 38.4287 49.4217 38.7251 49.6755 39.0746C49.6928 39.1011 49.7114 39.1266 49.7307 39.1517C50.5279 40.2834 50.3653 41.9702 49.3398 42.9205C49.0809 43.1708 48.9514 43.5264 48.9887 43.8846C49.026 44.2428 49.2259 44.5641 49.5309 44.7557C51.1136 45.7102 51.3825 48.0236 50.0652 49.316V49.316Z" fill="#913AFF"/>
</g>
<defs>
<clipPath id="clip0_820:3646">
<rect width="40" height="40" fill="white" transform="translate(20 20)"/>
</clipPath>
</defs>
</svg>
