<svg width="80" height="80" viewBox="0 0 80 80" fill="none" xmlns="http://www.w3.org/2000/svg">
<rect width="80" height="80" rx="16" fill="#F3E9FF"/>
<path d="M49.7067 50.596C49.0765 50.596 48.4558 50.6965 47.8654 50.8914C47.3359 49.655 46.5044 48.5518 45.4463 47.7014C44.2982 46.7787 42.9155 46.185 41.4646 45.9752V36.4326C43.1288 36.3224 46.1199 35.8245 48.1837 33.7605C51.1177 30.8264 50.888 26.016 50.8767 25.8126C50.8438 25.2162 50.3676 24.74 49.7712 24.7071C49.568 24.6958 44.7574 24.4661 41.8234 27.4001C41.5112 27.7123 41.2352 28.0458 40.9905 28.3926C40.5607 26.6654 39.7528 24.7357 38.2428 23.2257C34.7381 19.7211 28.971 19.9966 28.7274 20.0101C28.131 20.043 27.6547 20.5193 27.6218 21.1157C27.6084 21.3595 27.3327 27.1265 30.8374 30.6311C33.4049 33.1986 37.1862 33.7372 39.1208 33.8363V45.9751C37.67 46.1849 36.2873 46.7786 35.1392 47.7013C34.0811 48.5517 33.2495 49.6548 32.7201 50.8912C32.1297 50.6963 31.509 50.5958 30.8788 50.5958C27.6372 50.5958 25 53.2331 25 56.4746V58.8281C25 59.4753 25.5247 60 26.1719 60H54.4135C55.0607 60 55.5854 59.4753 55.5854 58.8281V56.4746C55.5855 53.2332 52.9483 50.596 49.7067 50.596V50.596ZM53.2418 57.6564H27.3438V56.4748C27.3438 54.5255 28.9296 52.9397 30.8789 52.9397C31.5562 52.9397 32.215 53.1327 32.7839 53.4979C33.1044 53.7035 33.5048 53.7406 33.8576 53.5975C34.2104 53.4543 34.4716 53.1486 34.5581 52.7778C35.1822 50.1018 37.5403 48.2328 40.2928 48.2328C43.0452 48.2328 45.4034 50.1017 46.0274 52.7778C46.1138 53.1486 46.3752 53.4543 46.728 53.5975C47.0808 53.7407 47.4812 53.7035 47.8016 53.4979C48.3706 53.1327 49.0293 52.9397 49.7067 52.9397C51.6559 52.9397 53.2418 54.5255 53.2418 56.4748V57.6564ZM36.5857 24.8831C38.5327 26.8301 38.9939 29.8596 39.0961 31.4873C37.4707 31.3882 34.451 30.9305 32.4946 28.9741C30.5476 27.0271 30.0863 23.9976 29.9841 22.3699C31.6095 22.4689 34.6293 22.9267 36.5857 24.8831V24.8831ZM43.4806 29.0575C44.9317 27.6063 47.1555 27.1952 48.4972 27.0833C48.3821 28.4283 47.968 30.6618 46.5264 32.1034C45.0752 33.5546 42.8515 33.9657 41.5098 34.0775C41.6249 32.7325 42.0391 30.499 43.4806 29.0575V29.0575Z" fill="#913AFF"/>
</svg>
