<svg width="80" height="80" viewBox="0 0 80 80" fill="none" xmlns="http://www.w3.org/2000/svg">
<rect width="80" height="80" rx="16" fill="#F3E9FF"/>
<path d="M56.9086 23.0908C54.9167 21.0977 52.2668 20 49.4485 20C46.6299 20 43.981 21.0977 41.9882 23.0908L32.5394 32.5394L23.0902 41.9891C21.0977 43.9822 20 46.6321 20 49.4498C20 52.2675 21.0977 54.9173 23.0902 56.9092C25.0821 58.9023 27.7319 60 30.5502 60C33.3685 60 36.0178 58.9023 38.0103 56.9092L47.4594 47.4606L56.9086 38.0109C58.9011 36.0178 59.9985 33.3679 59.9985 30.5502C59.9985 27.7325 58.9011 25.0827 56.9086 23.0908V23.0908ZM36.0211 54.92C34.5593 56.3815 32.6163 57.1869 30.5502 57.1869C28.4833 57.1869 26.5408 56.3818 25.0793 54.92C23.6179 53.4583 22.8134 51.5161 22.8134 49.4501C22.8134 47.384 23.6185 45.4401 25.0793 43.9786L33.5339 35.5234L44.4757 46.4664L36.0211 54.92ZM54.9194 36.0217L46.4648 44.4769L35.5231 33.5339L43.9777 25.08C45.4391 23.6185 47.3822 22.8131 49.4485 22.8131C51.5152 22.8131 53.4576 23.6182 54.9191 25.08C56.3806 26.5417 57.1851 28.4839 57.1851 30.5499C57.1851 32.616 56.3803 34.5599 54.9194 36.0217Z" fill="#913AFF"/>
<path d="M53.2104 29.4855C52.7618 29.4855 52.3209 29.2712 52.0483 28.8742C51.3901 27.9126 50.3043 27.3398 49.1428 27.3398C48.2031 27.3398 47.3206 27.7051 46.6556 28.3701C46.106 28.9194 45.2158 28.9194 44.6664 28.3701C44.1171 27.8204 44.1171 26.9302 44.6664 26.3809C45.8624 25.1843 47.4518 24.5264 49.1428 24.5264C51.2329 24.5264 53.187 25.5566 54.3698 27.2836C54.8087 27.9248 54.6454 28.8 54.0039 29.2398C53.7613 29.4058 53.4845 29.4855 53.2104 29.4855V29.4855Z" fill="#913AFF"/>
</svg>
