<svg width="80" height="80" viewBox="0 0 80 80" fill="none" xmlns="http://www.w3.org/2000/svg">
<rect width="80" height="80" rx="16" fill="#DDEAFF"/>
<g clip-path="url(#clip0_820:3646)">
<path d="M59.652 44.5181C58.826 43.7016 56.5843 41.1905 56.137 39.4011C55.7574 37.8819 56.1763 36.2066 54.7456 34.4009C55.4619 31.7296 53.9306 29.0004 51.4331 28.2628C50.6868 25.3257 47.6854 23.603 44.8654 24.6129C42.3137 21.4939 37.7039 21.4725 35.1348 24.6129C32.3151 23.6031 29.3134 25.3254 28.5671 28.2628C26.0738 28.9992 24.537 31.7252 25.2546 34.4009C23.825 36.2053 24.2422 37.8844 23.8633 39.4009C23.4174 41.1843 21.1744 43.6997 20.3482 44.518C19.7128 45.1461 19.9877 46.2283 20.846 46.477C20.946 46.506 22.1855 46.8534 23.9944 46.8534C25.479 46.8534 27.3474 46.6187 29.2829 45.782L31.249 51.703C31.8368 53.4723 32.9922 54.9854 34.5902 56.0788C39.6732 59.5566 46.894 57.2975 48.7515 51.7028L50.7175 45.7821C52.6531 46.6188 54.5213 46.8536 56.006 46.8535C57.8146 46.8535 59.0544 46.5061 59.1545 46.4771C60.0124 46.2284 60.2876 45.1463 59.652 44.5181ZM29.6794 30.4272C30.2511 30.3808 30.7053 29.9274 30.7526 29.3558C30.9295 27.2167 33.1595 25.9678 34.8884 27.0893C35.4526 27.4552 36.2103 27.2724 36.5443 26.6864C38.1258 23.911 41.8776 23.917 43.4558 26.6864C43.7894 27.2717 44.5469 27.4556 45.1116 27.0893C46.8423 25.9666 49.0707 27.2185 49.2475 29.3558C49.2947 29.9274 49.7489 30.3809 50.3207 30.4272C51.5866 30.5298 52.5782 31.6863 52.5782 33.0602C52.5782 33.7213 52.3502 34.3544 51.936 34.8428C50.8211 36.1586 48.8586 35.9197 48.0262 34.3968C47.5586 33.4573 46.182 33.5609 45.8607 34.5598C45.5524 35.4302 44.7718 36.0133 43.9116 36.0133C42.9125 36.0133 42.0505 35.2422 41.8621 34.1798C41.7616 33.6134 41.2688 33.2124 40.7095 33.2124C40.5006 33.2124 40.1137 33.3194 39.46 33.2247C38.8344 33.1338 38.2486 33.5567 38.138 34.1798C37.9496 35.2422 37.0876 36.0133 36.0885 36.0133C35.2305 36.0133 34.4518 35.4331 34.1418 34.5664C33.8274 33.5663 32.4537 33.4537 31.9786 34.3882C31.5397 35.1982 30.7321 35.7005 29.8659 35.7005C28.5113 35.7005 27.422 34.5104 27.422 33.0602C27.422 31.6863 28.4136 30.5298 29.6794 30.4272ZM23.5259 44.4939C24.5391 43.2629 25.7415 41.5511 26.137 39.9691C26.4622 38.6674 26.3424 37.5896 26.622 36.7259C27.082 37.1678 27.6181 37.5095 28.2032 37.7343C28.2032 42.7312 28.1793 42.4591 28.2631 42.7109L28.5405 43.5464C26.6756 44.3931 24.851 44.5446 23.5259 44.4939ZM46.5269 50.9643C45.7437 53.3231 43.5791 54.9162 41.1719 55.296V50.7954L42.7036 49.2637C43.1613 48.8061 43.1613 48.0641 42.7036 47.6065C42.2461 47.1488 41.504 47.1488 41.0464 47.6065L40.0001 48.6529L38.9537 47.6065C38.4961 47.1488 37.7541 47.1488 37.2964 47.6065C36.8387 48.0641 36.8387 48.8061 37.2964 49.2637L38.8282 50.7954V55.2968C36.3143 54.9036 34.2364 53.2615 33.4732 50.9643L30.547 42.1517V37.9925C31.4098 37.8634 32.2163 37.4927 32.8834 36.9293C34.9818 39.2102 38.5883 38.6721 40.0001 35.9179C41.414 38.6764 45.0213 39.207 47.1168 36.9293C47.7839 37.4927 48.5904 37.8634 49.4532 37.9925V42.1517L46.5269 50.9643ZM51.4597 43.5464C51.7453 42.6863 51.7969 42.5927 51.7969 42.3413V37.7341C52.3827 37.5091 52.9186 37.1674 53.3781 36.7258C53.6573 37.5881 53.5381 38.6681 53.8632 39.9693C54.2586 41.5512 55.4609 43.2627 56.4741 44.4937C55.1494 44.5448 53.3242 44.393 51.4597 43.5464Z" fill="#3A86FF"/>
<path d="M35.625 39.7632C34.9778 39.7632 34.4531 40.2879 34.4531 40.9351V42.1851C34.4531 42.8323 34.9778 43.357 35.625 43.357C36.2722 43.357 36.7969 42.8323 36.7969 42.1851V40.9351C36.7969 40.2878 36.2722 39.7632 35.625 39.7632Z" fill="#3A86FF"/>
<path d="M44.375 39.7632C43.7278 39.7632 43.2031 40.2879 43.2031 40.9351V42.1851C43.2031 42.8323 43.7278 43.357 44.375 43.357C45.0222 43.357 45.5469 42.8323 45.5469 42.1851V40.9351C45.5469 40.2878 45.0222 39.7632 44.375 39.7632Z" fill="#3A86FF"/>
</g>
<defs>
<clipPath id="clip0_820:3646">
<rect width="40" height="40" fill="white" transform="translate(20 20)"/>
</clipPath>
</defs>
</svg>
