<svg width="516" height="459" viewBox="0 0 516 459" fill="none" xmlns="http://www.w3.org/2000/svg">
<g filter="url(#filter0_dd_808_3655)">
<rect x="28" y="86" width="445" height="220" rx="8" fill="white"/>
</g>
<rect x="44" y="98" width="49" height="8" rx="4" fill="#F0F0F0"/>
<rect x="146" y="98" width="39" height="8" rx="4" fill="#F0F0F0"/>
<rect x="146" y="130" width="39" height="8" rx="4" fill="#F0F0F0"/>
<rect x="146" y="166" width="26" height="8" rx="4" fill="#DEDEDE"/>
<rect x="146" y="202" width="33" height="8" rx="4" fill="#F0F0F0"/>
<rect x="76" y="202" width="38" height="8" rx="4" fill="#F0F0F0"/>
<rect x="76" y="238" width="27" height="8" rx="4" fill="#DEDEDE"/>
<rect x="76" y="166" width="27" height="8" rx="4" fill="#DEDEDE"/>
<rect x="76" y="130" width="23" height="8" rx="4" fill="#F0F0F0"/>
<rect x="146" y="238" width="46" height="8" rx="4" fill="#DEDEDE"/>
<g filter="url(#filter1_dd_808_3655)">
<path d="M204 30C204 25.5817 207.582 22 212 22H476C480.418 22 484 25.5817 484 30V409C484 413.418 480.418 417 476 417H212C207.582 417 204 413.418 204 409V30Z" fill="white"/>
</g>
<path d="M231.972 210.273H230.915L228.733 211.722V212.795L230.864 211.381H230.915V219H231.972V210.273ZM237.209 219.119C238.871 219.119 240.089 217.892 240.089 216.222C240.089 214.53 238.913 213.29 237.311 213.29C236.723 213.29 236.152 213.499 235.794 213.784H235.743L236.05 211.21H239.697V210.273H235.163L234.635 214.568L235.624 214.688C235.986 214.428 236.604 214.24 237.141 214.244C238.253 214.253 239.067 215.097 239.067 216.239C239.067 217.359 238.283 218.182 237.209 218.182C236.314 218.182 235.602 217.607 235.521 216.818H234.499C234.562 218.148 235.709 219.119 237.209 219.119ZM242.204 219.068C242.626 219.068 242.971 218.723 242.971 218.301C242.971 217.879 242.626 217.534 242.204 217.534C241.782 217.534 241.437 217.879 241.437 218.301C241.437 218.723 241.782 219.068 242.204 219.068ZM247.31 219.119C248.972 219.119 250.191 217.892 250.191 216.222C250.191 214.53 249.015 213.29 247.413 213.29C246.825 213.29 246.254 213.499 245.896 213.784H245.844L246.151 211.21H249.799V210.273H245.265L244.737 214.568L245.725 214.688C246.087 214.428 246.705 214.24 247.242 214.244C248.354 214.253 249.168 215.097 249.168 216.239C249.168 217.359 248.384 218.182 247.31 218.182C246.415 218.182 245.704 217.607 245.623 216.818H244.6C244.664 218.148 245.81 219.119 247.31 219.119ZM255.276 219H256.282V214.909C256.282 213.95 256.98 213.273 257.765 213.273C258.527 213.273 259.06 213.771 259.06 214.517V219H260.083V214.739C260.083 213.895 260.611 213.273 261.532 213.273C262.248 213.273 262.861 213.652 262.861 214.619V219H263.867V214.619C263.867 213.081 263.04 212.369 261.873 212.369C260.935 212.369 260.249 212.8 259.912 213.477H259.844C259.52 212.778 258.949 212.369 258.088 212.369C257.236 212.369 256.605 212.778 256.333 213.477H256.248V212.455H255.276V219ZM266.711 210.273H265.706V219H266.711V210.273Z" fill="#0C211A"/>
<path d="M230.114 272.273H229.057V281H230.114V272.273ZM233.102 277.062C233.102 275.92 233.809 275.273 234.772 275.273C235.706 275.273 236.272 275.882 236.272 276.909V281H237.278V276.841C237.278 275.17 236.387 274.369 235.062 274.369C234.074 274.369 233.46 274.812 233.153 275.477H233.068V274.455H232.096V281H233.102V277.062ZM245.371 281.119C247.136 281.141 248.286 279.811 248.286 278.188C248.286 276.5 247.038 275.29 245.542 275.29C244.643 275.29 243.871 275.729 243.394 276.449H243.326C243.33 274.322 244.157 273.091 245.508 273.091C246.428 273.091 246.982 273.67 247.178 274.455H248.218C248.005 273.099 246.974 272.153 245.508 272.153C243.543 272.153 242.337 273.892 242.337 276.977C242.337 280.203 243.94 281.102 245.371 281.119ZM245.371 280.182C244.276 280.182 243.475 279.249 243.479 278.205C243.484 277.161 244.323 276.227 245.406 276.227C246.475 276.227 247.263 277.105 247.263 278.188C247.263 279.295 246.441 280.182 245.371 280.182ZM253.354 281H254.36V276.909C254.36 275.95 255.059 275.273 255.843 275.273C256.605 275.273 257.138 275.771 257.138 276.517V281H258.161V276.739C258.161 275.895 258.689 275.273 259.61 275.273C260.326 275.273 260.939 275.652 260.939 276.619V281H261.945V276.619C261.945 275.081 261.118 274.369 259.951 274.369C259.013 274.369 258.327 274.8 257.99 275.477H257.922C257.598 274.778 257.027 274.369 256.167 274.369C255.314 274.369 254.684 274.778 254.411 275.477H254.326V274.455H253.354V281ZM266.443 281.136C268.216 281.136 269.409 279.79 269.409 277.761C269.409 275.716 268.216 274.369 266.443 274.369C264.67 274.369 263.477 275.716 263.477 277.761C263.477 279.79 264.67 281.136 266.443 281.136ZM266.443 280.233C265.096 280.233 264.483 279.074 264.483 277.761C264.483 276.449 265.096 275.273 266.443 275.273C267.789 275.273 268.403 276.449 268.403 277.761C268.403 279.074 267.789 280.233 266.443 280.233ZM271.95 277.062C271.95 275.92 272.657 275.273 273.62 275.273C274.553 275.273 275.12 275.882 275.12 276.909V281H276.126V276.841C276.126 275.17 275.235 274.369 273.91 274.369C272.921 274.369 272.308 274.812 272.001 275.477H271.915V274.455H270.944V281H271.95V277.062ZM280.81 274.455H279.412V272.886H278.407V274.455H277.418V275.307H278.407V279.398C278.407 280.54 279.327 281.085 280.179 281.085C280.554 281.085 280.793 281.017 280.929 280.966L280.725 280.062C280.64 280.08 280.503 280.114 280.282 280.114C279.838 280.114 279.412 279.977 279.412 279.125V275.307H280.81V274.455ZM283.469 277.062C283.469 275.92 284.198 275.273 285.191 275.273C286.137 275.273 286.708 275.869 286.708 276.909V281H287.713V276.841C287.713 275.158 286.819 274.369 285.48 274.369C284.449 274.369 283.861 274.8 283.554 275.477H283.469V272.273H282.463V281H283.469V277.062ZM294.19 275.92C293.874 274.991 293.167 274.369 291.871 274.369C290.491 274.369 289.468 275.153 289.468 276.261C289.468 277.165 290.005 277.77 291.207 278.051L292.298 278.307C292.958 278.46 293.269 278.776 293.269 279.227C293.269 279.79 292.673 280.25 291.735 280.25C290.913 280.25 290.397 279.896 290.218 279.193L289.263 279.432C289.498 280.544 290.414 281.136 291.752 281.136C293.273 281.136 294.309 280.305 294.309 279.176C294.309 278.264 293.738 277.689 292.57 277.403L291.599 277.165C290.823 276.973 290.474 276.713 290.474 276.21C290.474 275.648 291.07 275.239 291.871 275.239C292.749 275.239 293.112 275.724 293.286 276.176L294.19 275.92Z" fill="#0C211A"/>
<path d="M455 45.9999L450.757 41.7573M459.243 41.7573L455 45.9999L459.243 41.7573ZM455 45.9999L450.757 50.2426L455 45.9999ZM455 45.9999L459.243 50.2426L455 45.9999Z" stroke="#DEDEDE" stroke-width="2" stroke-linecap="round" stroke-linejoin="round"/>
<path d="M238.67 40.3636H236.932V48.9091H236.824L230.903 40.3636H229.278V52H231.034V43.4659H231.142L237.057 52H238.67V40.3636ZM244.857 52.1761C246.76 52.1761 248.107 51.2386 248.493 49.8182L246.885 49.5284C246.578 50.3523 245.839 50.7727 244.874 50.7727C243.419 50.7727 242.442 49.8295 242.396 48.1477H248.601V47.5455C248.601 44.392 246.714 43.1591 244.737 43.1591C242.305 43.1591 240.703 45.0114 240.703 47.6932C240.703 50.4034 242.283 52.1761 244.857 52.1761ZM242.402 46.875C242.47 45.6364 243.368 44.5625 244.749 44.5625C246.067 44.5625 246.93 45.5398 246.936 46.875H242.402ZM252.362 52H254.089L255.862 45.6989H255.993L257.766 52H259.499L262.061 43.2727H260.305L258.607 49.6534H258.521L256.817 43.2727H255.061L253.345 49.6818H253.26L251.55 43.2727H249.794L252.362 52ZM267.908 52H269.607V46.6193C269.607 45.4432 270.43 44.625 271.396 44.625C272.339 44.625 272.993 45.25 272.993 46.1989V52H274.686V46.4375C274.686 45.3864 275.328 44.625 276.436 44.625C277.334 44.625 278.072 45.125 278.072 46.3068V52H279.771V46.1477C279.771 44.1534 278.658 43.1591 277.078 43.1591C275.822 43.1591 274.879 43.7614 274.459 44.6932H274.368C273.987 43.7386 273.186 43.1591 272.021 43.1591C270.868 43.1591 270.01 43.733 269.646 44.6932H269.538V43.2727H267.908V52ZM285.81 52.1761C287.713 52.1761 289.06 51.2386 289.446 49.8182L287.838 49.5284C287.531 50.3523 286.793 50.7727 285.827 50.7727C284.372 50.7727 283.395 49.8295 283.349 48.1477H289.554V47.5455C289.554 44.392 287.668 43.1591 285.69 43.1591C283.259 43.1591 281.656 45.0114 281.656 47.6932C281.656 50.4034 283.236 52.1761 285.81 52.1761ZM283.355 46.875C283.423 45.6364 284.321 44.5625 285.702 44.5625C287.02 44.5625 287.884 45.5398 287.889 46.875H283.355ZM294.706 52.1705C296.297 52.1705 296.922 51.1989 297.229 50.642H297.371V52H299.03V40.3636H297.331V44.6875H297.229C296.922 44.1477 296.342 43.1591 294.717 43.1591C292.609 43.1591 291.058 44.8239 291.058 47.6534C291.058 50.4773 292.587 52.1705 294.706 52.1705ZM295.081 50.7216C293.564 50.7216 292.774 49.3864 292.774 47.6364C292.774 45.9034 293.547 44.6023 295.081 44.6023C296.564 44.6023 297.359 45.8125 297.359 47.6364C297.359 49.4716 296.547 50.7216 295.081 50.7216ZM301.455 52H303.153V43.2727H301.455V52ZM302.312 41.9261C302.898 41.9261 303.386 41.4716 303.386 40.9148C303.386 40.358 302.898 39.8977 302.312 39.8977C301.722 39.8977 301.239 40.358 301.239 40.9148C301.239 41.4716 301.722 41.9261 302.312 41.9261ZM309.115 52.1761C311.178 52.1761 312.513 50.9375 312.7 49.2386H311.047C310.831 50.1818 310.098 50.7386 309.126 50.7386C307.689 50.7386 306.763 49.5398 306.763 47.6364C306.763 45.767 307.706 44.5909 309.126 44.5909C310.206 44.5909 310.865 45.2727 311.047 46.0909H312.7C312.518 44.3295 311.081 43.1591 309.098 43.1591C306.638 43.1591 305.047 45.0114 305.047 47.6761C305.047 50.3068 306.581 52.1761 309.115 52.1761ZM317.057 52.1932C318.5 52.1932 319.312 51.4602 319.636 50.8068H319.705V52H321.364V46.2045C321.364 43.6648 319.364 43.1591 317.977 43.1591C316.398 43.1591 314.943 43.7955 314.375 45.3864L315.972 45.75C316.222 45.1307 316.858 44.5341 318 44.5341C319.097 44.5341 319.659 45.108 319.659 46.0966V46.1364C319.659 46.7557 319.023 46.7443 317.455 46.9261C315.801 47.1193 314.108 47.5511 314.108 49.5341C314.108 51.25 315.398 52.1932 317.057 52.1932ZM317.426 50.8295C316.466 50.8295 315.773 50.3977 315.773 49.5568C315.773 48.6477 316.58 48.3239 317.562 48.1932C318.114 48.1193 319.42 47.9716 319.665 47.7273V48.8523C319.665 49.8864 318.841 50.8295 317.426 50.8295ZM327.7 43.2727H325.911V41.1818H324.212V43.2727H322.933V44.6364H324.212V49.7898C324.206 51.375 325.416 52.142 326.757 52.1136C327.297 52.108 327.661 52.0057 327.859 51.9318L327.553 50.5284C327.439 50.5511 327.229 50.6023 326.956 50.6023C326.405 50.6023 325.911 50.4205 325.911 49.4375V44.6364H327.7V43.2727ZM329.58 52H331.278V43.2727H329.58V52ZM330.438 41.9261C331.023 41.9261 331.511 41.4716 331.511 40.9148C331.511 40.358 331.023 39.8977 330.438 39.8977C329.847 39.8977 329.364 40.358 329.364 40.9148C329.364 41.4716 329.847 41.9261 330.438 41.9261ZM337.24 52.1761C339.7 52.1761 341.308 50.375 341.308 47.6761C341.308 44.9602 339.7 43.1591 337.24 43.1591C334.78 43.1591 333.172 44.9602 333.172 47.6761C333.172 50.375 334.78 52.1761 337.24 52.1761ZM337.246 50.75C335.638 50.75 334.888 49.3466 334.888 47.6705C334.888 46 335.638 44.5795 337.246 44.5795C338.842 44.5795 339.592 46 339.592 47.6705C339.592 49.3466 338.842 50.75 337.246 50.75ZM344.903 46.8182C344.903 45.4261 345.756 44.6307 346.938 44.6307C348.091 44.6307 348.79 45.3864 348.79 46.6534V52H350.489V46.4489C350.489 44.2898 349.301 43.1591 347.517 43.1591C346.205 43.1591 345.347 43.767 344.943 44.6932H344.835V43.2727H343.205V52H344.903V46.8182Z" fill="#0C211A"/>
<path d="M228.528 99.4062H231.247V107H232.56V99.4062H235.283V98.2727H228.528V99.4062ZM236.728 109.455C237.781 109.455 238.446 108.905 238.825 107.874L241.531 100.467L240.154 100.455L238.497 105.534H238.429L236.771 100.455H235.407L237.802 107.085L237.645 107.52C237.321 108.389 236.865 108.462 236.166 108.27L235.859 109.314C236.012 109.382 236.345 109.455 236.728 109.455ZM242.732 109.455H244.006V105.982H244.082C244.312 106.399 244.781 107.128 245.974 107.128C247.56 107.128 248.71 105.858 248.71 103.74C248.71 101.618 247.543 100.369 245.962 100.369C244.747 100.369 244.308 101.111 244.082 101.516H243.976V100.455H242.732V109.455ZM243.98 103.727C243.98 102.359 244.577 101.452 245.689 101.452C246.844 101.452 247.423 102.428 247.423 103.727C247.423 105.04 246.827 106.041 245.689 106.041C244.594 106.041 243.98 105.104 243.98 103.727ZM252.959 107.132C254.386 107.132 255.396 106.429 255.686 105.364L254.48 105.146C254.25 105.764 253.696 106.08 252.972 106.08C251.881 106.08 251.148 105.372 251.114 104.111H255.767V103.659C255.767 101.294 254.352 100.369 252.869 100.369C251.045 100.369 249.844 101.759 249.844 103.77C249.844 105.803 251.028 107.132 252.959 107.132ZM251.118 103.156C251.169 102.227 251.842 101.422 252.878 101.422C253.866 101.422 254.514 102.155 254.518 103.156H251.118Z" fill="#0C211A"/>
<path d="M231.784 198C234.443 198 235.982 196.351 235.982 193.624C235.982 190.909 234.443 189.273 231.874 189.273H228.959V198H231.784ZM230.276 196.849V190.423H231.793C233.702 190.423 234.686 191.565 234.686 193.624C234.686 195.69 233.702 196.849 231.712 196.849H230.276ZM240.274 198.132C242.119 198.132 243.325 196.781 243.325 194.757C243.325 192.72 242.119 191.369 240.274 191.369C238.429 191.369 237.223 192.72 237.223 194.757C237.223 196.781 238.429 198.132 240.274 198.132ZM240.278 197.062C239.072 197.062 238.51 196.01 238.51 194.753C238.51 193.5 239.072 192.435 240.278 192.435C241.475 192.435 242.038 193.5 242.038 194.753C242.038 196.01 241.475 197.062 240.278 197.062ZM249.652 193.053C249.388 192.034 248.591 191.369 247.176 191.369C245.697 191.369 244.649 192.149 244.649 193.308C244.649 194.237 245.212 194.855 246.439 195.128L247.547 195.371C248.178 195.511 248.472 195.793 248.472 196.202C248.472 196.709 247.93 197.105 247.095 197.105C246.332 197.105 245.842 196.777 245.689 196.134L244.457 196.321C244.67 197.48 245.634 198.132 247.104 198.132C248.685 198.132 249.78 197.293 249.78 196.108C249.78 195.183 249.192 194.612 247.99 194.335L246.95 194.097C246.23 193.926 245.919 193.683 245.923 193.24C245.919 192.737 246.464 192.379 247.189 192.379C247.982 192.379 248.348 192.818 248.497 193.257L249.652 193.053ZM254.002 198.132C255.429 198.132 256.439 197.429 256.729 196.364L255.523 196.146C255.293 196.764 254.739 197.08 254.015 197.08C252.924 197.08 252.191 196.372 252.157 195.111H256.81V194.659C256.81 192.294 255.395 191.369 253.912 191.369C252.088 191.369 250.887 192.759 250.887 194.77C250.887 196.803 252.071 198.132 254.002 198.132ZM252.161 194.156C252.212 193.227 252.885 192.422 253.921 192.422C254.909 192.422 255.557 193.155 255.561 194.156H252.161Z" fill="#0C211A"/>
<path d="M228.959 260H230.276V256.697H232.065C232.095 256.697 232.121 256.697 232.151 256.697L233.923 260H235.423L233.489 256.467C234.558 256.071 235.091 255.18 235.091 254.009C235.091 252.402 234.094 251.273 232.07 251.273H228.959V260ZM230.276 255.564V252.402H231.929C233.229 252.402 233.766 253.02 233.766 254.009C233.766 254.993 233.229 255.564 231.946 255.564H230.276ZM239.33 260.132C240.757 260.132 241.767 259.429 242.057 258.364L240.851 258.146C240.621 258.764 240.067 259.08 239.343 259.08C238.252 259.08 237.519 258.372 237.485 257.111H242.138V256.659C242.138 254.294 240.723 253.369 239.24 253.369C237.417 253.369 236.215 254.759 236.215 256.77C236.215 258.803 237.4 260.132 239.33 260.132ZM237.489 256.156C237.54 255.227 238.213 254.422 239.249 254.422C240.238 254.422 240.885 255.155 240.89 256.156H237.489ZM243.552 260H244.826V255.964C244.826 255.082 245.444 254.469 246.168 254.469C246.876 254.469 247.366 254.938 247.366 255.649V260H248.636V255.828C248.636 255.04 249.117 254.469 249.948 254.469C250.621 254.469 251.175 254.844 251.175 255.73V260H252.45V255.611C252.45 254.115 251.614 253.369 250.43 253.369C249.488 253.369 248.781 253.821 248.465 254.52H248.397C248.112 253.804 247.511 253.369 246.637 253.369C245.772 253.369 245.129 253.8 244.856 254.52H244.775V253.455H243.552V260ZM254.157 260H255.431V253.455H254.157V260ZM254.801 252.445C255.24 252.445 255.606 252.104 255.606 251.686C255.606 251.268 255.24 250.923 254.801 250.923C254.358 250.923 253.995 251.268 253.995 251.686C253.995 252.104 254.358 252.445 254.801 252.445ZM258.42 256.114C258.42 255.07 259.059 254.473 259.945 254.473C260.81 254.473 261.335 255.04 261.335 255.99V260H262.609V255.837C262.609 254.217 261.718 253.369 260.38 253.369C259.396 253.369 258.752 253.825 258.45 254.52H258.369V253.455H257.146V260H258.42V256.114ZM266.768 260.128C267.961 260.128 268.43 259.399 268.66 258.982H268.766V260H270.011V251.273H268.737V254.516H268.66C268.43 254.111 267.995 253.369 266.776 253.369C265.195 253.369 264.032 254.618 264.032 256.74C264.032 258.858 265.178 260.128 266.768 260.128ZM267.049 259.041C265.911 259.041 265.319 258.04 265.319 256.727C265.319 255.428 265.898 254.452 267.049 254.452C268.161 254.452 268.758 255.359 268.758 256.727C268.758 258.104 268.148 259.041 267.049 259.041ZM277.455 260.128C278.648 260.128 279.117 259.399 279.347 258.982H279.454V260H280.698V251.273H279.424V254.516H279.347C279.117 254.111 278.683 253.369 277.464 253.369C275.883 253.369 274.719 254.618 274.719 256.74C274.719 258.858 275.866 260.128 277.455 260.128ZM277.737 259.041C276.599 259.041 276.006 258.04 276.006 256.727C276.006 255.428 276.586 254.452 277.737 254.452C278.849 254.452 279.445 255.359 279.445 256.727C279.445 258.104 278.836 259.041 277.737 259.041ZM286.663 257.286C286.667 258.398 285.841 258.926 285.125 258.926C284.336 258.926 283.791 258.355 283.791 257.464V253.455H282.517V257.618C282.517 259.241 283.407 260.085 284.664 260.085C285.649 260.085 286.318 259.565 286.62 258.866H286.689V260H287.941V253.455H286.663V257.286ZM292.474 260.132C293.902 260.132 294.912 259.429 295.202 258.364L293.996 258.146C293.766 258.764 293.212 259.08 292.487 259.08C291.396 259.08 290.663 258.372 290.629 257.111H295.283V256.659C295.283 254.294 293.868 253.369 292.385 253.369C290.561 253.369 289.359 254.759 289.359 256.77C289.359 258.803 290.544 260.132 292.474 260.132ZM290.634 256.156C290.685 255.227 291.358 254.422 292.393 254.422C293.382 254.422 294.03 255.155 294.034 256.156H290.634Z" fill="#0C211A"/>
<path d="M236.003 314.273H234.699V320.682H234.618L230.178 314.273H228.959V323H230.276V316.599H230.357L234.793 323H236.003V314.273ZM240.578 323.132C242.424 323.132 243.63 321.781 243.63 319.757C243.63 317.72 242.424 316.369 240.578 316.369C238.733 316.369 237.527 317.72 237.527 319.757C237.527 321.781 238.733 323.132 240.578 323.132ZM240.583 322.062C239.377 322.062 238.814 321.01 238.814 319.753C238.814 318.5 239.377 317.435 240.583 317.435C241.78 317.435 242.343 318.5 242.343 319.753C242.343 321.01 241.78 322.062 240.583 322.062ZM248.107 316.455H246.765V314.886H245.491V316.455H244.532V317.477H245.491V321.342C245.487 322.531 246.394 323.107 247.4 323.085C247.805 323.081 248.077 323.004 248.227 322.949L247.996 321.896C247.911 321.913 247.754 321.952 247.549 321.952C247.136 321.952 246.765 321.815 246.765 321.078V317.477H248.107V316.455ZM252.267 323.132C253.695 323.132 254.705 322.429 254.995 321.364L253.789 321.146C253.559 321.764 253.005 322.08 252.28 322.08C251.189 322.08 250.456 321.372 250.422 320.111H255.076V319.659C255.076 317.294 253.661 316.369 252.178 316.369C250.354 316.369 249.152 317.759 249.152 319.77C249.152 321.803 250.337 323.132 252.267 323.132ZM250.426 319.156C250.478 318.227 251.151 317.422 252.186 317.422C253.175 317.422 253.823 318.155 253.827 319.156H250.426Z" fill="#0C211A"/>
<path d="M228 123C228 120.791 229.791 119 232 119H264C266.209 119 268 120.791 268 123V134C268 136.209 266.209 138 264 138H232C229.791 138 228 136.209 228 134V123Z" fill="#F0F0F0"/>
<path d="M236.705 125.182V131H237.364V126.58H237.42L239.239 131H239.875L241.693 126.58H241.75V131H242.409V125.182H241.568L239.591 130.011H239.523L237.545 125.182H236.705ZM245.015 131.102C245.776 131.102 246.174 130.693 246.31 130.409H246.344V131H247.015V128.125C247.015 126.739 245.958 126.58 245.401 126.58C244.742 126.58 243.992 126.807 243.651 127.602L244.288 127.83C244.435 127.511 244.785 127.17 245.424 127.17C246.04 127.17 246.344 127.497 246.344 128.057V128.08C246.344 128.403 246.015 128.375 245.219 128.477C244.41 128.582 243.526 128.761 243.526 129.761C243.526 130.614 244.185 131.102 245.015 131.102ZM245.117 130.5C244.583 130.5 244.197 130.261 244.197 129.795C244.197 129.284 244.663 129.125 245.185 129.057C245.469 129.023 246.231 128.943 246.344 128.807V129.42C246.344 129.966 245.913 130.5 245.117 130.5ZM250.136 126.636H249.205V125.591H248.534V126.636H247.875V127.205H248.534V129.932C248.534 130.693 249.148 131.057 249.716 131.057C249.966 131.057 250.125 131.011 250.216 130.977L250.08 130.375C250.023 130.386 249.932 130.409 249.784 130.409C249.489 130.409 249.205 130.318 249.205 129.75V127.205H250.136V126.636ZM251.145 131H251.815V128.239C251.815 127.648 252.281 127.216 252.918 127.216C253.097 127.216 253.281 127.25 253.327 127.261V126.58C253.25 126.574 253.074 126.568 252.974 126.568C252.452 126.568 251.997 126.864 251.838 127.295H251.793V126.636H251.145V131ZM254.121 131H254.792V126.636H254.121V131ZM254.462 125.909C254.724 125.909 254.94 125.705 254.94 125.455C254.94 125.205 254.724 125 254.462 125C254.201 125 253.985 125.205 253.985 125.455C253.985 125.705 254.201 125.909 254.462 125.909ZM256.52 126.636H255.747L257.134 128.818L255.747 131H256.52L257.565 129.307L258.611 131H259.384L257.974 128.818L259.384 126.636H258.611L257.565 128.42L256.52 126.636Z" fill="#0C211A"/>
<path d="M282 146C282 143.791 283.791 142 286 142H328C330.209 142 332 143.791 332 146V157C332 159.209 330.209 161 328 161H286C283.791 161 282 159.209 282 157V146Z" fill="#F0F0F0"/>
<path d="M290.705 154H291.409V151.875H292.682C294.037 151.875 294.648 151.051 294.648 150.023C294.648 148.994 294.037 148.182 292.67 148.182H290.705V154ZM291.409 151.25V148.807H292.648C293.594 148.807 293.955 149.324 293.955 150.023C293.955 150.722 293.594 151.25 292.659 151.25H291.409ZM297.474 154.091C298.361 154.091 299.009 153.648 299.213 152.989L298.565 152.807C298.395 153.261 298 153.489 297.474 153.489C296.688 153.489 296.145 152.98 296.114 152.045H299.281V151.761C299.281 150.136 298.315 149.58 297.406 149.58C296.224 149.58 295.44 150.511 295.44 151.852C295.44 153.193 296.213 154.091 297.474 154.091ZM296.114 151.466C296.159 150.787 296.639 150.182 297.406 150.182C298.134 150.182 298.599 150.727 298.599 151.466H296.114ZM300.972 151.375C300.972 150.614 301.443 150.182 302.085 150.182C302.707 150.182 303.085 150.588 303.085 151.273V154H303.756V151.227C303.756 150.114 303.162 149.58 302.278 149.58C301.619 149.58 301.21 149.875 301.006 150.318H300.949V149.636H300.301V154H300.972V151.375ZM304.981 154H305.651V149.636H304.981V154ZM305.322 148.909C305.583 148.909 305.799 148.705 305.799 148.455C305.799 148.205 305.583 148 305.322 148C305.06 148 304.844 148.205 304.844 148.455C304.844 148.705 305.06 148.909 305.322 148.909ZM308.652 154.091C309.618 154.091 310.254 153.5 310.368 152.727H309.697C309.572 153.205 309.175 153.489 308.652 153.489C307.857 153.489 307.345 152.83 307.345 151.818C307.345 150.83 307.868 150.182 308.652 150.182C309.243 150.182 309.595 150.545 309.697 150.943H310.368C310.254 150.125 309.561 149.58 308.641 149.58C307.459 149.58 306.675 150.511 306.675 151.841C306.675 153.148 307.425 154.091 308.652 154.091ZM311.348 154H312.018V149.636H311.348V154ZM311.689 148.909C311.95 148.909 312.166 148.705 312.166 148.455C312.166 148.205 311.95 148 311.689 148C311.428 148 311.212 148.205 311.212 148.455C311.212 148.705 311.428 148.909 311.689 148.909ZM313.917 148.182H313.246V154H313.917V148.182ZM315.815 148.182H315.145V154H315.815V148.182ZM317.043 154H317.714V149.636H317.043V154ZM317.384 148.909C317.646 148.909 317.862 148.705 317.862 148.455C317.862 148.205 317.646 148 317.384 148C317.123 148 316.907 148.205 316.907 148.455C316.907 148.705 317.123 148.909 317.384 148.909ZM319.612 151.375C319.612 150.614 320.084 150.182 320.726 150.182C321.348 150.182 321.726 150.588 321.726 151.273V154H322.396V151.227C322.396 150.114 321.803 149.58 320.919 149.58C320.26 149.58 319.851 149.875 319.646 150.318H319.589V149.636H318.942V154H319.612V151.375Z" fill="#0C211A"/>
<rect x="336" y="142" width="61" height="19" rx="4" fill="#F0F0F0"/>
<path d="M348 151.5H346M348 149.5V151.5V149.5ZM348 151.5V153.5V151.5ZM348 151.5H350H348Z" stroke="#0C211A" stroke-linecap="round" stroke-linejoin="round"/>
<path d="M360.318 148.182H359.625V152.761H359.568L356.386 148.182H355.705V154H356.409V149.432H356.466L359.636 154H360.318V148.182ZM363.467 154.091C364.353 154.091 365.001 153.648 365.205 152.989L364.558 152.807C364.387 153.261 363.992 153.489 363.467 153.489C362.68 153.489 362.137 152.98 362.106 152.045H365.273V151.761C365.273 150.136 364.308 149.58 363.398 149.58C362.217 149.58 361.433 150.511 361.433 151.852C361.433 153.193 362.205 154.091 363.467 154.091ZM362.106 151.466C362.151 150.787 362.631 150.182 363.398 150.182C364.126 150.182 364.592 150.727 364.592 151.466H362.106ZM367.282 154H367.941L368.896 150.648H368.964L369.918 154H370.577L371.907 149.636H371.202L370.259 152.966H370.214L369.293 149.636H368.577L367.646 152.977H367.6L366.657 149.636H365.952L367.282 154ZM376.941 149.636H376.009V148.591H375.339V149.636H374.68V150.205H375.339V152.932C375.339 153.693 375.952 154.057 376.521 154.057C376.771 154.057 376.93 154.011 377.021 153.977L376.884 153.375C376.827 153.386 376.737 153.409 376.589 153.409C376.293 153.409 376.009 153.318 376.009 152.75V150.205H376.941V149.636ZM378.381 155.636C378.987 155.636 379.413 155.315 379.665 154.636L381.523 149.648L380.79 149.636L379.586 153.114H379.54L378.336 149.636H377.609L379.222 154.023L379.097 154.364C378.853 155.028 378.552 155.091 378.063 154.966L377.893 155.557C377.961 155.591 378.154 155.636 378.381 155.636ZM382.411 155.636H383.081V153.33H383.138C383.286 153.568 383.57 154.091 384.411 154.091C385.501 154.091 386.263 153.216 386.263 151.83C386.263 150.455 385.501 149.58 384.399 149.58C383.547 149.58 383.286 150.102 383.138 150.33H383.058V149.636H382.411V155.636ZM383.07 151.818C383.07 150.841 383.501 150.182 384.32 150.182C385.172 150.182 385.592 150.898 385.592 151.818C385.592 152.75 385.161 153.489 384.32 153.489C383.513 153.489 383.07 152.807 383.07 151.818ZM389.115 154.091C390.001 154.091 390.649 153.648 390.854 152.989L390.206 152.807C390.036 153.261 389.641 153.489 389.115 153.489C388.328 153.489 387.786 152.98 387.754 152.045H390.922V151.761C390.922 150.136 389.956 149.58 389.047 149.58C387.865 149.58 387.081 150.511 387.081 151.852C387.081 153.193 387.854 154.091 389.115 154.091ZM387.754 151.466C387.8 150.787 388.28 150.182 389.047 150.182C389.774 150.182 390.24 150.727 390.24 151.466H387.754Z" fill="#0C211A"/>
<path d="M272 123C272 120.791 273.791 119 276 119H323C325.209 119 327 120.791 327 123V134C327 136.209 325.209 138 323 138H276C273.791 138 272 136.209 272 134V123Z" fill="#3AB291"/>
<path d="M282.5 131C284.273 131 285.273 129.898 285.273 128.08C285.273 126.273 284.273 125.182 282.58 125.182H280.705V131H282.5ZM281.409 130.375V125.807H282.534C283.898 125.807 284.591 126.67 284.591 128.08C284.591 129.5 283.898 130.375 282.455 130.375H281.409ZM288.193 131.091C289.08 131.091 289.727 130.648 289.932 129.989L289.284 129.807C289.114 130.261 288.719 130.489 288.193 130.489C287.406 130.489 286.864 129.98 286.832 129.045H290V128.761C290 127.136 289.034 126.58 288.125 126.58C286.943 126.58 286.159 127.511 286.159 128.852C286.159 130.193 286.932 131.091 288.193 131.091ZM286.832 128.466C286.878 127.787 287.358 127.182 288.125 127.182C288.852 127.182 289.318 127.727 289.318 128.466H286.832ZM292.793 131.091C293.759 131.091 294.395 130.5 294.509 129.727H293.838C293.713 130.205 293.315 130.489 292.793 130.489C291.997 130.489 291.486 129.83 291.486 128.818C291.486 127.83 292.009 127.182 292.793 127.182C293.384 127.182 293.736 127.545 293.838 127.943H294.509C294.395 127.125 293.702 126.58 292.781 126.58C291.599 126.58 290.815 127.511 290.815 128.841C290.815 130.148 291.565 131.091 292.793 131.091ZM297.386 126.636H296.455V125.591H295.784V126.636H295.125V127.205H295.784V129.932C295.784 130.693 296.398 131.057 296.966 131.057C297.216 131.057 297.375 131.011 297.466 130.977L297.33 130.375C297.273 130.386 297.182 130.409 297.034 130.409C296.739 130.409 296.455 130.318 296.455 129.75V127.205H297.386V126.636ZM300.121 131.091C301.303 131.091 302.098 130.193 302.098 128.841C302.098 127.477 301.303 126.58 300.121 126.58C298.939 126.58 298.143 127.477 298.143 128.841C298.143 130.193 298.939 131.091 300.121 131.091ZM300.121 130.489C299.223 130.489 298.814 129.716 298.814 128.841C298.814 127.966 299.223 127.182 300.121 127.182C301.018 127.182 301.428 127.966 301.428 128.841C301.428 129.716 301.018 130.489 300.121 130.489ZM303.121 131H303.792V128.273C303.792 127.634 304.258 127.182 304.781 127.182C305.289 127.182 305.644 127.514 305.644 128.011V131H306.326V128.159C306.326 127.597 306.678 127.182 307.292 127.182C307.769 127.182 308.178 127.435 308.178 128.08V131H308.849V128.08C308.849 127.054 308.298 126.58 307.519 126.58C306.894 126.58 306.437 126.866 306.212 127.318H306.167C305.951 126.852 305.57 126.58 304.996 126.58C304.428 126.58 304.008 126.852 303.826 127.318H303.769V126.636H303.121V131ZM311.359 131.102C312.12 131.102 312.518 130.693 312.654 130.409H312.688V131H313.359V128.125C313.359 126.739 312.302 126.58 311.745 126.58C311.086 126.58 310.336 126.807 309.995 127.602L310.631 127.83C310.779 127.511 311.129 127.17 311.768 127.17C312.384 127.17 312.688 127.497 312.688 128.057V128.08C312.688 128.403 312.359 128.375 311.563 128.477C310.754 128.582 309.87 128.761 309.87 129.761C309.87 130.614 310.529 131.102 311.359 131.102ZM311.461 130.5C310.927 130.5 310.54 130.261 310.54 129.795C310.54 129.284 311.006 129.125 311.529 129.057C311.813 129.023 312.575 128.943 312.688 128.807V129.42C312.688 129.966 312.256 130.5 311.461 130.5ZM315.082 126.636H314.31L315.696 128.818L314.31 131H315.082L316.128 129.307L317.173 131H317.946L316.537 128.818L317.946 126.636H317.173L316.128 128.42L315.082 126.636Z" fill="white"/>
<path d="M331 123C331 120.791 332.791 119 335 119H363C365.209 119 367 120.791 367 123V134C367 136.209 365.209 138 363 138H335C332.791 138 331 136.209 331 134V123Z" fill="#F0F0F0"/>
<path d="M341.42 131.08C342.528 131.08 343.341 130.261 343.341 129.148C343.341 128.02 342.557 127.193 341.489 127.193C341.097 127.193 340.716 127.332 340.477 127.523H340.443L340.648 125.807H343.08V125.182H340.057L339.705 128.045L340.364 128.125C340.605 127.952 341.017 127.827 341.375 127.83C342.116 127.835 342.659 128.398 342.659 129.159C342.659 129.906 342.136 130.455 341.42 130.455C340.824 130.455 340.349 130.071 340.295 129.545H339.614C339.656 130.432 340.42 131.08 341.42 131.08ZM346.731 131H347.401V126.636H346.731V131ZM347.072 125.909C347.333 125.909 347.549 125.705 347.549 125.455C347.549 125.205 347.333 125 347.072 125C346.81 125 346.594 125.205 346.594 125.455C346.594 125.705 346.81 125.909 347.072 125.909ZM349.3 128.375C349.3 127.614 349.771 127.182 350.413 127.182C351.036 127.182 351.413 127.588 351.413 128.273V131H352.084V128.227C352.084 127.114 351.49 126.58 350.607 126.58C349.947 126.58 349.538 126.875 349.334 127.318H349.277V126.636H348.629V131H349.3V128.375ZM357.593 125.182H356.888L355.434 126.148V126.864L356.854 125.92H356.888V131H357.593V125.182Z" fill="#0C211A"/>
<path d="M371 123C371 120.791 372.791 119 375 119H407C409.209 119 411 120.791 411 123V134C411 136.209 409.209 138 407 138H375C372.791 138 371 136.209 371 134V123Z" fill="#F0F0F0"/>
<path d="M379.943 131L380.528 129.352H382.881L383.466 131H384.205L382.068 125.182H381.341L379.205 131H379.943ZM380.75 128.727L381.682 126.102H381.727L382.659 128.727H380.75ZM386.02 130.205H385.293L385.259 130.523C385.176 131.293 385.014 132.06 384.94 132.42H385.452C385.588 132.034 385.878 131.159 385.974 130.511L386.02 130.205ZM389.148 131C390.921 131 391.921 129.898 391.921 128.08C391.921 126.273 390.921 125.182 389.228 125.182H387.353V131H389.148ZM388.058 130.375V125.807H389.183C390.546 125.807 391.239 126.67 391.239 128.08C391.239 129.5 390.546 130.375 389.103 130.375H388.058ZM394.66 131.08C395.194 131.08 395.79 130.892 396.168 130.506L396.58 131H397.387L396.583 130.02C396.802 129.739 397.046 129.267 397.046 128.455H396.398C396.398 128.852 396.308 129.205 396.157 129.497L394.893 127.955L395.319 127.636C395.796 127.284 396.092 126.898 396.092 126.341C396.092 125.693 395.558 125.125 394.683 125.125C393.83 125.125 393.273 125.659 393.273 126.443C393.273 126.96 393.555 127.358 393.955 127.841C393.276 128.312 392.808 128.75 392.808 129.455C392.808 130.398 393.512 131.08 394.66 131.08ZM395.768 130.02C395.447 130.321 395.04 130.489 394.637 130.489C393.944 130.489 393.489 130 393.489 129.455C393.489 129.295 393.637 128.886 394.16 128.5L394.376 128.341L395.768 130.02ZM394.481 127.455C394.197 127.108 393.955 126.778 393.955 126.455C393.955 126.091 394.262 125.705 394.705 125.705C395.126 125.705 395.41 126.045 395.41 126.341C395.41 126.739 395.194 126.955 394.864 127.17L394.481 127.455ZM398.22 131H401.777V130.375H398.925V128.398H401.55V127.773H398.925V125.807H401.732V125.182H398.22V131Z" fill="#0C211A"/>
<path d="M228 146C228 143.791 229.791 142 232 142H274C276.209 142 278 143.791 278 146V157C278 159.209 276.209 161 274 161H232C229.791 161 228 159.209 228 157V146Z" fill="#F0F0F0"/>
<path d="M236.705 154H237.409V151.398H239.932V150.773H237.409V148.807H240.193V148.182H236.705V154ZM241.262 154H241.933V151.239C241.933 150.648 242.398 150.216 243.035 150.216C243.214 150.216 243.398 150.25 243.444 150.261V149.58C243.367 149.574 243.191 149.568 243.092 149.568C242.569 149.568 242.114 149.864 241.955 150.295H241.91V149.636H241.262V154ZM245.879 154.091C247.06 154.091 247.856 153.193 247.856 151.841C247.856 150.477 247.06 149.58 245.879 149.58C244.697 149.58 243.901 150.477 243.901 151.841C243.901 153.193 244.697 154.091 245.879 154.091ZM245.879 153.489C244.981 153.489 244.572 152.716 244.572 151.841C244.572 150.966 244.981 150.182 245.879 150.182C246.776 150.182 247.185 150.966 247.185 151.841C247.185 152.716 246.776 153.489 245.879 153.489ZM249.55 151.375C249.55 150.614 250.021 150.182 250.663 150.182C251.286 150.182 251.663 150.588 251.663 151.273V154H252.334V151.227C252.334 150.114 251.74 149.58 250.857 149.58C250.197 149.58 249.788 149.875 249.584 150.318H249.527V149.636H248.879V154H249.55V151.375ZM255.457 149.636H254.525V148.591H253.854V149.636H253.195V150.205H253.854V152.932C253.854 153.693 254.468 154.057 255.036 154.057C255.286 154.057 255.445 154.011 255.536 153.977L255.4 153.375C255.343 153.386 255.252 153.409 255.104 153.409C254.809 153.409 254.525 153.318 254.525 152.75V150.205H255.457V149.636ZM257.229 148.182H256.559V154H257.229V148.182ZM258.457 154H259.128V149.636H258.457V154ZM258.798 148.909C259.06 148.909 259.276 148.705 259.276 148.455C259.276 148.205 259.06 148 258.798 148C258.537 148 258.321 148.205 258.321 148.455C258.321 148.705 258.537 148.909 258.798 148.909ZM261.026 151.375C261.026 150.614 261.498 150.182 262.14 150.182C262.762 150.182 263.14 150.588 263.14 151.273V154H263.81V151.227C263.81 150.114 263.217 149.58 262.333 149.58C261.674 149.58 261.265 149.875 261.06 150.318H261.004V149.636H260.356V154H261.026V151.375ZM266.865 154.091C267.751 154.091 268.399 153.648 268.604 152.989L267.956 152.807C267.786 153.261 267.391 153.489 266.865 153.489C266.078 153.489 265.536 152.98 265.504 152.045H268.672V151.761C268.672 150.136 267.706 149.58 266.797 149.58C265.615 149.58 264.831 150.511 264.831 151.852C264.831 153.193 265.604 154.091 266.865 154.091ZM265.504 151.466C265.55 150.787 266.03 150.182 266.797 150.182C267.524 150.182 267.99 150.727 267.99 151.466H265.504Z" fill="#0C211A"/>
<path d="M204 70H484" stroke="#F0F0F0"/>
<rect x="229" y="337" width="232" height="16" rx="8" fill="#F0F0F0"/>
<rect x="228" y="357" width="172" height="16" rx="8" fill="#F0F0F0"/>
<rect x="228" y="377" width="195" height="16" rx="8" fill="#F0F0F0"/>
<rect x="44" y="122" width="24" height="24" rx="8" fill="#F0F0F0"/>
<rect x="44" y="158" width="24" height="24" rx="8" fill="#F0F0F0"/>
<rect x="44" y="194" width="24" height="24" rx="8" fill="#F0F0F0"/>
<rect x="44" y="230" width="24" height="24" rx="8" fill="#F0F0F0"/>
<defs>
<filter id="filter0_dd_808_3655" x="0" y="68" width="501" height="276" filterUnits="userSpaceOnUse" color-interpolation-filters="sRGB">
<feFlood flood-opacity="0" result="BackgroundImageFix"/>
<feColorMatrix in="SourceAlpha" type="matrix" values="0 0 0 0 0 0 0 0 0 0 0 0 0 0 0 0 0 0 127 0" result="hardAlpha"/>
<feMorphology radius="4" operator="erode" in="SourceAlpha" result="effect1_dropShadow_808_3655"/>
<feOffset dy="10"/>
<feGaussianBlur stdDeviation="16"/>
<feColorMatrix type="matrix" values="0 0 0 0 0 0 0 0 0 0.0612745 0 0 0 0 0.208333 0 0 0 0.08 0"/>
<feBlend mode="normal" in2="BackgroundImageFix" result="effect1_dropShadow_808_3655"/>
<feColorMatrix in="SourceAlpha" type="matrix" values="0 0 0 0 0 0 0 0 0 0 0 0 0 0 0 0 0 0 127 0" result="hardAlpha"/>
<feMorphology radius="6" operator="erode" in="SourceAlpha" result="effect2_dropShadow_808_3655"/>
<feOffset dy="6"/>
<feGaussianBlur stdDeviation="7"/>
<feColorMatrix type="matrix" values="0 0 0 0 0 0 0 0 0 0.294118 0 0 0 0 1 0 0 0 0.04 0"/>
<feBlend mode="normal" in2="effect1_dropShadow_808_3655" result="effect2_dropShadow_808_3655"/>
<feBlend mode="normal" in="SourceGraphic" in2="effect2_dropShadow_808_3655" result="shape"/>
</filter>
<filter id="filter1_dd_808_3655" x="172" y="0" width="344" height="459" filterUnits="userSpaceOnUse" color-interpolation-filters="sRGB">
<feFlood flood-opacity="0" result="BackgroundImageFix"/>
<feColorMatrix in="SourceAlpha" type="matrix" values="0 0 0 0 0 0 0 0 0 0 0 0 0 0 0 0 0 0 127 0" result="hardAlpha"/>
<feOffset dy="10"/>
<feGaussianBlur stdDeviation="16"/>
<feColorMatrix type="matrix" values="0 0 0 0 0.0941176 0 0 0 0 0.152941 0 0 0 0 0.294118 0 0 0 0.08 0"/>
<feBlend mode="normal" in2="BackgroundImageFix" result="effect1_dropShadow_808_3655"/>
<feColorMatrix in="SourceAlpha" type="matrix" values="0 0 0 0 0 0 0 0 0 0 0 0 0 0 0 0 0 0 127 0" result="hardAlpha"/>
<feOffset dy="6"/>
<feGaussianBlur stdDeviation="7"/>
<feColorMatrix type="matrix" values="0 0 0 0 0.0941176 0 0 0 0 0.152941 0 0 0 0 0.294118 0 0 0 0.08 0"/>
<feBlend mode="normal" in2="effect1_dropShadow_808_3655" result="effect2_dropShadow_808_3655"/>
<feBlend mode="normal" in="SourceGraphic" in2="effect2_dropShadow_808_3655" result="shape"/>
</filter>
</defs>
</svg>
