<svg width="528" height="448" viewBox="0 0 528 448" fill="none" xmlns="http://www.w3.org/2000/svg">
<g filter="url(#filter0_dd_1249_843)">
<rect x="220" y="226" width="280" height="80" rx="8" fill="white"/>
</g>
<rect x="232" y="238" width="56" height="56" rx="8" fill="#F3E9FF"/>
<rect x="304" y="250" width="93" height="16" rx="8" fill="#C2C2C2"/>
<rect x="304" y="250" width="158" height="16" rx="8" fill="#F0F0F0"/>
<rect x="304" y="270" width="59" height="12" rx="6" fill="#DEDEDE"/>
<path d="M267.928 256.941C269.611 256.054 270.977 254.781 271.879 253.259C272.032 253.002 272.034 252.682 271.886 252.421C271.738 252.161 271.461 252 271.161 252H248.838C248.538 252 248.261 252.161 248.113 252.421C247.964 252.682 247.967 253.002 248.12 253.259C249.021 254.781 250.388 256.054 252.07 256.941C253.515 257.702 255.145 258.151 256.823 258.257V260.4H252.881C251.407 260.4 250.161 261.503 249.981 262.966L248.297 276.724C248.195 277.553 248.455 278.389 249.009 279.015C249.563 279.641 250.36 280 251.196 280H268.803C269.639 280 270.436 279.641 270.99 279.015C271.545 278.389 271.804 277.554 271.702 276.724L270.018 262.966C269.839 261.503 268.592 260.4 267.118 260.4H263.175V258.257C264.854 258.151 266.483 257.702 267.928 256.941ZM267.118 262.068C267.75 262.068 268.285 262.542 268.362 263.169L270.047 276.926C270.091 277.288 269.982 277.637 269.741 277.909C269.5 278.182 269.167 278.332 268.803 278.332H251.196C250.832 278.332 250.499 278.182 250.258 277.909C250.017 277.637 249.908 277.288 249.953 276.926L251.637 263.169C251.714 262.542 252.249 262.068 252.881 262.068H267.118V262.068ZM258.492 260.4V258.282H261.507V260.4H258.492ZM262.403 256.614H257.595C254.767 256.614 252.172 255.514 250.489 253.668H269.509C267.826 255.514 265.232 256.614 262.403 256.614Z" fill="#913AFF"/>
<path d="M260 263.364C256.231 263.364 253.165 266.431 253.165 270.2C253.165 273.969 256.231 277.036 260 277.036C263.77 277.036 266.836 273.969 266.836 270.2C266.836 266.431 263.77 263.364 260 263.364ZM260 275.368C257.151 275.368 254.833 273.049 254.833 270.2C254.833 267.351 257.151 265.033 260 265.033C262.85 265.033 265.168 267.351 265.168 270.2C265.168 273.049 262.85 275.368 260 275.368Z" fill="#913AFF"/>
<path d="M260.59 269.61C260.264 269.284 259.736 269.284 259.41 269.61L257.402 271.618C257.076 271.944 257.076 272.472 257.402 272.798C257.565 272.961 257.778 273.042 257.992 273.042C258.205 273.042 258.419 272.961 258.582 272.798L260.59 270.79C260.916 270.464 260.916 269.936 260.59 269.61Z" fill="#913AFF"/>
<g filter="url(#filter1_dd_1249_843)">
<rect x="168" y="18" width="280" height="80" rx="8" fill="white"/>
</g>
<rect x="180" y="30" width="56" height="56" rx="8" fill="#F3E9FF"/>
<rect x="252" y="42" width="80" height="16" rx="8" fill="#F0F0F0"/>
<rect x="252" y="62" width="59" height="12" rx="6" fill="#DEDEDE"/>
<g clip-path="url(#clip0_1249_843)">
<path d="M203.356 57.7202C202.903 57.7202 202.535 58.0876 202.535 58.5407C202.578 59.6292 204.133 59.6289 204.176 58.5407C204.176 58.0876 203.809 57.7202 203.356 57.7202Z" fill="#913AFF"/>
<path d="M212.198 57.7202C211.745 57.7202 211.377 58.0876 211.377 58.5407C211.421 59.6292 212.975 59.6289 213.019 58.5407C213.019 58.0876 212.651 57.7202 212.198 57.7202Z" fill="#913AFF"/>
<path d="M216.253 60.5154C216.981 59.3876 216.987 57.7984 216.281 56.6612V49.2559C216.281 46.3578 213.924 44 211.025 44C210.572 44 210.205 44.3674 210.205 44.8205V50.7024C208.901 49.4566 206.683 49.3995 205.325 50.5811V44.8205C205.325 44.3674 204.957 44 204.504 44C201.606 44 199.248 46.3578 199.248 49.2559V56.6695C198.476 57.9153 198.576 59.6743 199.493 60.8192C198.679 61.8485 198.492 63.3598 199.039 64.5647V66.8319C199.039 69.6816 201.357 72 204.207 72H211.283C214.132 72 216.451 69.6816 216.451 66.8319V65.4096C217.624 64.0321 217.527 61.7847 216.253 60.5154ZM214.64 49.2559V52.561C213.968 51.7638 212.966 51.2537 211.846 51.2431V45.735C213.445 46.1076 214.64 47.5448 214.64 49.2559ZM203.684 45.735V51.2432C202.563 51.2553 201.561 51.7673 200.889 52.5666V49.2559C200.889 47.5448 202.084 46.1076 203.684 45.735ZM207.908 69.3448C207.92 69.3458 207.932 69.3458 207.944 69.3448H209.323C208.866 70.6879 206.961 70.687 206.504 69.3448H207.908ZM210.392 67.7021H208.746V64.7114L209.433 63.97C209.741 63.6377 209.722 63.1185 209.389 62.8104C209.057 62.5022 208.538 62.5221 208.23 62.8543L207.903 63.2067L207.528 62.8319C207.208 62.5115 206.688 62.5115 206.368 62.8319C206.047 63.1523 206.047 63.6719 206.368 63.9923L207.105 64.7294V67.7021H205.436C204.887 67.7021 204.44 67.2553 204.44 66.7062V63.7999C204.631 59.1903 211.198 59.1938 211.388 63.7999V66.7062C211.388 67.2553 210.941 67.7021 210.392 67.7021ZM215.046 64.5212C214.894 64.6747 214.81 64.8815 214.81 65.097V66.8319C214.81 68.7768 213.228 70.3589 211.283 70.3589H210.665C210.845 70.0268 210.966 69.6584 211.016 69.268C212.169 68.9869 213.029 67.9453 213.029 66.7062V63.7999C212.747 57.0126 203.078 57.0178 202.799 63.7999V66.7062C202.799 67.9453 203.658 68.9869 204.812 69.268C204.862 69.6584 204.983 70.0268 205.163 70.3589H204.207C202.262 70.3589 200.68 68.7768 200.68 66.8319V64.3804C200.68 64.251 200.649 64.1235 200.591 64.0082C200.145 63.1591 200.386 62.0482 201.148 61.4614C201.557 61.1495 201.557 60.4889 201.148 60.1769C199.993 59.2868 200.158 57.4282 201.446 56.7503C201.813 56.5508 201.972 56.1071 201.814 55.72C201.105 53.9633 202.956 52.2554 204.649 53.1027C204.855 53.2065 205.096 53.2188 205.311 53.1367C205.527 53.0545 205.698 52.8853 205.782 52.6707C206.473 50.9122 208.979 50.9496 209.635 52.7125C209.718 52.9378 209.895 53.1154 210.121 53.1986C210.346 53.2816 210.596 53.2621 210.806 53.1448C212.503 52.2054 214.443 53.9208 213.72 55.72C213.562 56.1071 213.721 56.5507 214.088 56.7503C214.364 56.9001 214.595 57.1075 214.773 57.3522C214.785 57.3708 214.798 57.3887 214.811 57.4062C215.37 58.1983 215.256 59.3791 214.538 60.0444C214.357 60.2196 214.266 60.4685 214.292 60.7192C214.318 60.97 214.458 61.1949 214.672 61.329C215.779 61.9972 215.968 63.6165 215.046 64.5212Z" fill="#913AFF"/>
</g>
<g filter="url(#filter2_dd_1249_843)">
<rect x="28" y="122" width="280" height="80" rx="8" fill="white"/>
</g>
<rect x="40" y="134" width="56" height="56" rx="8" fill="#F3E9FF"/>
<rect x="112" y="146" width="93" height="16" rx="8" fill="#C2C2C2"/>
<rect x="112" y="146" width="114" height="16" rx="8" fill="#F0F0F0"/>
<rect x="112" y="166" width="59" height="12" rx="6" fill="#DEDEDE"/>
<g clip-path="url(#clip1_1249_843)">
<path d="M80.3178 165.905C78.6947 164.282 76.3335 163.835 74.3042 164.566L71.6493 161.914C76.3997 157.14 73.6772 159.855 79.0704 154.462C80.5337 152.999 80.5346 150.624 79.071 149.161C78.7202 148.799 78.2553 148.295 77.378 148.295C76.8448 148.295 76.3428 148.503 75.965 148.881C75.5969 149.249 68.2307 156.648 68.0003 156.88C67.6495 156.527 60.3439 149.189 60.0351 148.88C59.6578 148.503 59.1558 148.295 58.6227 148.295C57.8302 148.295 57.3897 148.687 56.9297 149.161C55.4671 150.623 55.4659 152.998 56.9302 154.462C62.3241 159.856 59.6002 157.139 64.3513 161.914L61.697 164.566C59.6677 163.835 57.3065 164.281 55.6829 165.905C53.4392 168.149 53.4389 171.78 55.6829 174.025C59.2573 177.599 65.4849 175.106 65.4849 169.965C65.4849 169.271 65.3624 168.596 65.1278 167.964L68.0003 165.092L70.8728 167.964C69.482 171.709 72.2515 175.704 76.2575 175.704C76.9925 175.704 77.728 175.564 78.4192 175.285C82.2057 173.752 83.2332 168.822 80.3178 165.905ZM77.378 149.935C77.5262 149.935 77.6016 150.001 77.7646 150.176C77.9013 150.321 78.5269 150.826 78.5269 151.811C78.5269 152.375 78.3082 152.904 77.9106 153.301C71.4978 159.714 74.637 156.6 68.9868 162.251C68.2712 162.966 67.1438 162.688 66.7229 161.864C66.4533 161.336 66.5381 160.673 66.9772 160.232C77.8775 149.285 77.1576 149.935 77.378 149.935ZM58.09 153.301C57.2768 152.489 57.2664 151.17 58.0665 150.344C58.2979 150.142 58.3884 149.935 58.6226 149.935C58.7194 149.935 58.8064 149.972 58.8742 150.039C59.1028 150.268 66.6745 157.872 66.8432 158.042L65.8151 159.074C65.4586 159.432 65.2098 159.857 65.0687 160.309C60.9538 156.171 63.1885 158.4 58.09 153.301ZM56.8433 172.865C55.2405 171.263 55.2398 168.667 56.8433 167.065C59.1886 164.718 63.2572 165.996 63.7908 169.3C64.4326 173.23 59.64 175.662 56.8433 172.865ZM64.3004 166.471C63.9858 166.061 63.616 165.694 63.2018 165.381L65.5089 163.077C65.9006 163.473 66.1756 163.779 66.7387 164.033L64.3004 166.471ZM69.2619 164.033C69.834 163.775 70.1137 163.457 70.4922 163.076L72.7988 165.381C72.3847 165.694 72.0149 166.061 71.7002 166.471L69.2619 164.033ZM79.1574 172.865C76.3637 175.659 71.5672 173.236 72.2098 169.3C72.7409 166.011 76.803 164.711 79.1574 167.065C80.7592 168.666 80.7621 171.262 79.1574 172.865Z" fill="#913AFF"/>
<path d="M76.2569 167.504C74.0707 167.504 72.9688 170.157 74.5169 171.705C76.0711 173.259 78.7177 172.139 78.7177 169.965C78.7177 168.61 77.6233 167.504 76.2569 167.504ZM76.2569 170.785C75.5286 170.785 75.1611 169.9 75.6767 169.384C75.995 169.066 76.5144 169.063 76.8371 169.384C77.3537 169.902 76.9828 170.785 76.2569 170.785Z" fill="#913AFF"/>
<path d="M61.0209 167.86C59.3923 166.868 57.2827 168.044 57.2827 169.965C57.2827 172.167 59.9488 173.24 61.4835 171.705C62.6132 170.575 62.3812 168.686 61.0209 167.86ZM59.1633 170.545C58.5483 169.929 59.2026 168.878 60.0404 169.2C60.2541 169.282 60.4264 169.455 60.5085 169.668C60.8279 170.499 59.7845 171.165 59.1633 170.545Z" fill="#913AFF"/>
</g>
<g filter="url(#filter3_dd_1249_843)">
<rect x="80" y="330" width="280" height="80" rx="8" fill="white"/>
</g>
<rect x="92" y="342" width="56" height="56" rx="8" fill="#F3E9FF"/>
<rect x="164" y="354" width="93" height="16" rx="8" fill="#F0F0F0"/>
<rect x="164" y="374" width="59" height="12" rx="6" fill="#DEDEDE"/>
<g clip-path="url(#clip2_1249_843)">
<path d="M117.132 374.868L120.999 363.267C121.143 362.837 120.91 362.373 120.481 362.229C120.051 362.086 119.586 362.318 119.443 362.748L115.576 374.349C115.433 374.779 115.665 375.244 116.095 375.387C116.181 375.415 116.268 375.429 116.354 375.429C116.698 375.429 117.018 375.212 117.132 374.868Z" fill="#913AFF"/>
<path d="M122.928 371.269C124.285 371.269 125.389 370.165 125.389 368.808C125.389 367.451 124.285 366.347 122.928 366.347C121.571 366.347 120.467 367.451 120.467 368.808C120.467 370.165 121.571 371.269 122.928 371.269ZM122.928 367.988C123.38 367.988 123.748 368.356 123.748 368.808C123.748 369.26 123.38 369.628 122.928 369.628C122.475 369.628 122.107 369.26 122.107 368.808C122.107 368.356 122.475 367.988 122.928 367.988Z" fill="#913AFF"/>
<path d="M113.647 366.347C112.29 366.347 111.186 367.451 111.186 368.808C111.186 370.165 112.29 371.269 113.647 371.269C115.004 371.269 116.108 370.165 116.108 368.808C116.108 367.451 115.004 366.347 113.647 366.347ZM113.647 369.628C113.195 369.628 112.827 369.26 112.827 368.808C112.827 368.356 113.195 367.988 113.647 367.988C114.099 367.988 114.467 368.356 114.467 368.808C114.467 369.26 114.099 369.628 113.647 369.628Z" fill="#913AFF"/>
<path d="M133.836 366.172L130.976 362.358L131.087 361.577C131.124 361.322 131.038 361.064 130.855 360.881L129.115 359.141L130.855 357.401C131.176 357.08 131.176 356.561 130.855 356.241C130.535 355.92 130.016 355.92 129.695 356.241L127.955 357.981L126.215 356.241C126.033 356.058 125.775 355.972 125.519 356.009L117.398 357.169C117.223 357.194 117.06 357.275 116.934 357.401L106.88 367.455C105.707 368.628 105.707 370.536 106.88 371.709L115.387 380.216C115.561 380.39 115.752 380.538 115.954 380.66V380.993C115.954 382.651 117.303 384 118.961 384H130.993C132.651 384 134 382.651 134 380.993V366.665C134 366.487 133.943 366.314 133.836 366.172ZM108.04 370.549C107.507 370.016 107.507 369.148 108.04 368.615L117.901 358.754L125.345 357.691L126.795 359.141L125.635 360.301L125.055 359.721C124.735 359.401 124.215 359.401 123.895 359.721C123.574 360.041 123.574 360.561 123.895 360.881L126.215 363.201C126.375 363.362 126.585 363.442 126.795 363.442C127.005 363.442 127.215 363.362 127.375 363.201C127.695 362.881 127.695 362.362 127.375 362.041L126.795 361.461L127.955 360.301L129.405 361.751L128.342 369.195L118.481 379.056C118.223 379.314 117.879 379.456 117.514 379.456C117.149 379.456 116.806 379.314 116.548 379.056L108.04 370.549ZM132.36 380.993C132.36 381.747 131.747 382.36 130.993 382.36H118.961C118.242 382.36 117.65 381.801 117.598 381.094C118.34 381.073 119.076 380.781 119.641 380.216L129.695 370.162C129.821 370.036 129.902 369.874 129.927 369.698L130.648 364.655L132.36 366.938V380.993Z" fill="#913AFF"/>
</g>
<defs>
<filter id="filter0_dd_1249_843" x="192" y="208" width="336" height="136" filterUnits="userSpaceOnUse" color-interpolation-filters="sRGB">
<feFlood flood-opacity="0" result="BackgroundImageFix"/>
<feColorMatrix in="SourceAlpha" type="matrix" values="0 0 0 0 0 0 0 0 0 0 0 0 0 0 0 0 0 0 127 0" result="hardAlpha"/>
<feMorphology radius="4" operator="erode" in="SourceAlpha" result="effect1_dropShadow_1249_843"/>
<feOffset dy="10"/>
<feGaussianBlur stdDeviation="16"/>
<feColorMatrix type="matrix" values="0 0 0 0 0 0 0 0 0 0.0612745 0 0 0 0 0.208333 0 0 0 0.1 0"/>
<feBlend mode="normal" in2="BackgroundImageFix" result="effect1_dropShadow_1249_843"/>
<feColorMatrix in="SourceAlpha" type="matrix" values="0 0 0 0 0 0 0 0 0 0 0 0 0 0 0 0 0 0 127 0" result="hardAlpha"/>
<feMorphology radius="6" operator="erode" in="SourceAlpha" result="effect2_dropShadow_1249_843"/>
<feOffset dy="6"/>
<feGaussianBlur stdDeviation="7"/>
<feColorMatrix type="matrix" values="0 0 0 0 0 0 0 0 0 0.294118 0 0 0 0 1 0 0 0 0.12 0"/>
<feBlend mode="normal" in2="effect1_dropShadow_1249_843" result="effect2_dropShadow_1249_843"/>
<feBlend mode="normal" in="SourceGraphic" in2="effect2_dropShadow_1249_843" result="shape"/>
</filter>
<filter id="filter1_dd_1249_843" x="140" y="0" width="336" height="136" filterUnits="userSpaceOnUse" color-interpolation-filters="sRGB">
<feFlood flood-opacity="0" result="BackgroundImageFix"/>
<feColorMatrix in="SourceAlpha" type="matrix" values="0 0 0 0 0 0 0 0 0 0 0 0 0 0 0 0 0 0 127 0" result="hardAlpha"/>
<feMorphology radius="4" operator="erode" in="SourceAlpha" result="effect1_dropShadow_1249_843"/>
<feOffset dy="10"/>
<feGaussianBlur stdDeviation="16"/>
<feColorMatrix type="matrix" values="0 0 0 0 0 0 0 0 0 0.0612745 0 0 0 0 0.208333 0 0 0 0.1 0"/>
<feBlend mode="normal" in2="BackgroundImageFix" result="effect1_dropShadow_1249_843"/>
<feColorMatrix in="SourceAlpha" type="matrix" values="0 0 0 0 0 0 0 0 0 0 0 0 0 0 0 0 0 0 127 0" result="hardAlpha"/>
<feMorphology radius="6" operator="erode" in="SourceAlpha" result="effect2_dropShadow_1249_843"/>
<feOffset dy="6"/>
<feGaussianBlur stdDeviation="7"/>
<feColorMatrix type="matrix" values="0 0 0 0 0 0 0 0 0 0.294118 0 0 0 0 1 0 0 0 0.12 0"/>
<feBlend mode="normal" in2="effect1_dropShadow_1249_843" result="effect2_dropShadow_1249_843"/>
<feBlend mode="normal" in="SourceGraphic" in2="effect2_dropShadow_1249_843" result="shape"/>
</filter>
<filter id="filter2_dd_1249_843" x="0" y="104" width="336" height="136" filterUnits="userSpaceOnUse" color-interpolation-filters="sRGB">
<feFlood flood-opacity="0" result="BackgroundImageFix"/>
<feColorMatrix in="SourceAlpha" type="matrix" values="0 0 0 0 0 0 0 0 0 0 0 0 0 0 0 0 0 0 127 0" result="hardAlpha"/>
<feMorphology radius="4" operator="erode" in="SourceAlpha" result="effect1_dropShadow_1249_843"/>
<feOffset dy="10"/>
<feGaussianBlur stdDeviation="16"/>
<feColorMatrix type="matrix" values="0 0 0 0 0 0 0 0 0 0.0612745 0 0 0 0 0.208333 0 0 0 0.1 0"/>
<feBlend mode="normal" in2="BackgroundImageFix" result="effect1_dropShadow_1249_843"/>
<feColorMatrix in="SourceAlpha" type="matrix" values="0 0 0 0 0 0 0 0 0 0 0 0 0 0 0 0 0 0 127 0" result="hardAlpha"/>
<feMorphology radius="6" operator="erode" in="SourceAlpha" result="effect2_dropShadow_1249_843"/>
<feOffset dy="6"/>
<feGaussianBlur stdDeviation="7"/>
<feColorMatrix type="matrix" values="0 0 0 0 0 0 0 0 0 0.294118 0 0 0 0 1 0 0 0 0.12 0"/>
<feBlend mode="normal" in2="effect1_dropShadow_1249_843" result="effect2_dropShadow_1249_843"/>
<feBlend mode="normal" in="SourceGraphic" in2="effect2_dropShadow_1249_843" result="shape"/>
</filter>
<filter id="filter3_dd_1249_843" x="52" y="312" width="336" height="136" filterUnits="userSpaceOnUse" color-interpolation-filters="sRGB">
<feFlood flood-opacity="0" result="BackgroundImageFix"/>
<feColorMatrix in="SourceAlpha" type="matrix" values="0 0 0 0 0 0 0 0 0 0 0 0 0 0 0 0 0 0 127 0" result="hardAlpha"/>
<feMorphology radius="4" operator="erode" in="SourceAlpha" result="effect1_dropShadow_1249_843"/>
<feOffset dy="10"/>
<feGaussianBlur stdDeviation="16"/>
<feColorMatrix type="matrix" values="0 0 0 0 0 0 0 0 0 0.0612745 0 0 0 0 0.208333 0 0 0 0.1 0"/>
<feBlend mode="normal" in2="BackgroundImageFix" result="effect1_dropShadow_1249_843"/>
<feColorMatrix in="SourceAlpha" type="matrix" values="0 0 0 0 0 0 0 0 0 0 0 0 0 0 0 0 0 0 127 0" result="hardAlpha"/>
<feMorphology radius="6" operator="erode" in="SourceAlpha" result="effect2_dropShadow_1249_843"/>
<feOffset dy="6"/>
<feGaussianBlur stdDeviation="7"/>
<feColorMatrix type="matrix" values="0 0 0 0 0 0 0 0 0 0.294118 0 0 0 0 1 0 0 0 0.12 0"/>
<feBlend mode="normal" in2="effect1_dropShadow_1249_843" result="effect2_dropShadow_1249_843"/>
<feBlend mode="normal" in="SourceGraphic" in2="effect2_dropShadow_1249_843" result="shape"/>
</filter>
<clipPath id="clip0_1249_843">
<rect width="28" height="28" fill="white" transform="translate(194 44)"/>
</clipPath>
<clipPath id="clip1_1249_843">
<rect width="28" height="28" fill="white" transform="translate(54 148)"/>
</clipPath>
<clipPath id="clip2_1249_843">
<rect width="28" height="28" fill="white" transform="translate(106 356)"/>
</clipPath>
</defs>
</svg>
