<svg width="664" height="440" viewBox="0 0 664 440" fill="none" xmlns="http://www.w3.org/2000/svg">
<g filter="url(#filter0_dd_1296_1077)">
<rect x="28" y="18" width="531.282" height="339.203" rx="8.17357" fill="#FAFAFA"/>
</g>
<rect x="44.3472" y="34.3472" width="122.604" height="306.509" rx="8.17357" fill="white"/>
<g filter="url(#filter1_dd_1296_1077)">
<rect x="183.298" y="169.211" width="436.702" height="208.426" rx="9.92505" fill="white"/>
</g>
<rect x="198.185" y="179.136" width="47.144" height="7.44379" rx="3.72189" fill="#F5F5F5"/>
<rect x="348.73" y="179.136" width="47.144" height="7.44379" rx="3.72189" fill="#F5F5F5"/>
<rect x="475.274" y="179.136" width="47.144" height="7.44379" rx="3.72189" fill="#F5F5F5"/>
<rect x="237.885" y="206.43" width="49.6252" height="7.44379" rx="3.72189" fill="#DEDEDE"/>
<rect x="237.885" y="218.836" width="57.069" height="7.44379" rx="3.72189" fill="#F5F5F5"/>
<rect x="348.73" y="212.633" width="39.7002" height="7.44379" rx="3.72189" fill="#DEDEDE"/>
<rect x="475.274" y="206.43" width="19.8501" height="19.8501" rx="9.92505" fill="#88D3BD"/>
<rect x="475.274" y="246.13" width="19.8501" height="19.8501" rx="9.92505" fill="#FF8D6F"/>
<rect x="475.274" y="285.83" width="19.8501" height="19.8501" rx="9.92505" fill="#FF8D6F"/>
<rect x="475.274" y="325.531" width="19.8501" height="19.8501" rx="9.92505" fill="#88D3BD"/>
<rect x="198.185" y="201.468" width="29.7751" height="29.7751" rx="9.92505" fill="#F0F0F0"/>
<g clip-path="url(#clip0_1296_1077)">
<path d="M485.199 213.563L485.199 219.146M483.028 215.735L485.199 213.563L483.028 215.735ZM485.199 213.563L487.37 215.735L485.199 213.563Z" stroke="white" stroke-width="1.24063" stroke-linecap="round" stroke-linejoin="round"/>
</g>
<g clip-path="url(#clip1_1296_1077)">
<path d="M485.199 258.847L485.199 253.264M487.37 256.676L485.199 258.847L487.37 256.676ZM485.199 258.847L483.028 256.676L485.199 258.847Z" stroke="white" stroke-width="1.24063" stroke-linecap="round" stroke-linejoin="round"/>
</g>
<g clip-path="url(#clip2_1296_1077)">
<path d="M485.199 298.547L485.199 292.964M487.371 296.376L485.199 298.547L487.371 296.376ZM485.199 298.547L483.028 296.376L485.199 298.547Z" stroke="white" stroke-width="1.24063" stroke-linecap="round" stroke-linejoin="round"/>
</g>
<path d="M485.2 332.664L485.2 338.247M483.028 334.835L485.2 332.664L483.028 334.835ZM485.2 332.664L487.371 334.835L485.2 332.664Z" stroke="white" stroke-width="1.24063" stroke-linecap="round" stroke-linejoin="round"/>
<rect x="237.885" y="325.531" width="49.6252" height="7.44379" rx="3.72189" fill="#DEDEDE"/>
<rect x="348.73" y="331.734" width="45.9034" height="7.44379" rx="3.72189" fill="#DEDEDE"/>
<rect x="237.885" y="337.937" width="45.9034" height="7.44379" rx="3.72189" fill="#F5F5F5"/>
<rect x="198.185" y="320.568" width="29.7751" height="29.7751" rx="9.92505" fill="#F0F0F0"/>
<rect x="237.885" y="246.13" width="35.9783" height="7.44379" rx="3.72189" fill="#DEDEDE"/>
<rect x="348.73" y="252.333" width="45.9034" height="7.44379" rx="3.72189" fill="#DEDEDE"/>
<rect x="237.885" y="258.536" width="58.3097" height="7.44379" rx="3.72189" fill="#F5F5F5"/>
<rect x="198.185" y="241.167" width="29.7751" height="29.7751" rx="9.92505" fill="#F0F0F0"/>
<rect x="237.885" y="285.83" width="21.0907" height="7.44379" rx="3.72189" fill="#DEDEDE"/>
<rect x="348.73" y="292.034" width="58.3097" height="7.44379" rx="3.72189" fill="#DEDEDE"/>
<rect x="237.885" y="298.237" width="43.4221" height="7.44379" rx="3.72189" fill="#F5F5F5"/>
<rect x="198.185" y="280.868" width="29.7751" height="29.7751" rx="9.92505" fill="#F0F0F0"/>
<rect x="183.298" y="34.3472" width="359.637" height="118.517" rx="8.17357" fill="white"/>
<g clip-path="url(#clip3_1296_1077)">
<rect x="191.472" y="40.4773" width="359.637" height="118.517" fill="white"/>
<mask id="mask0_1296_1077" style="mask-type:alpha" maskUnits="userSpaceOnUse" x="183" y="48" width="362" height="111">
<path d="M187.317 56.5764L183.298 48.6509V158.994H544.979L540.96 153.284L540.96 153.283C536.941 147.573 528.904 136.153 520.867 129.114C512.829 122.075 504.792 119.419 496.755 121.358C488.717 123.298 480.68 129.833 472.642 125.913C464.605 121.993 456.568 107.617 448.53 100.475C440.493 93.3326 432.456 93.4239 424.418 96.0523C416.381 98.6807 408.344 103.846 400.306 105.692C392.269 107.538 384.232 106.065 376.194 108.239C368.157 110.413 360.12 116.235 352.082 117.257C344.045 118.279 336.008 114.501 327.97 106.99C319.933 99.4781 311.896 88.2335 303.858 84.5271C295.821 80.8207 287.784 84.6525 279.746 91.1232C271.709 97.5939 263.672 106.704 255.634 110.676C247.597 114.648 239.56 113.482 231.522 110.214C223.485 106.946 215.447 101.575 207.41 90.9641C199.373 80.3532 191.335 64.502 187.317 56.5765L187.317 56.5764Z" fill="url(#paint0_linear_1296_1077)"/>
</mask>
<g mask="url(#mask0_1296_1077)">
<path d="M187.317 56.5764L183.298 48.6509V158.994H544.979L540.96 153.284L540.96 153.283C536.941 147.573 528.904 136.153 520.867 129.114C512.829 122.075 504.792 119.419 496.755 121.358C488.717 123.298 480.68 129.833 472.642 125.913C464.605 121.993 456.568 107.617 448.53 100.475C440.493 93.3326 432.456 93.4239 424.418 96.0523C416.381 98.6807 408.344 103.846 400.306 105.692C392.269 107.538 384.232 106.065 376.194 108.239C368.157 110.413 360.12 116.235 352.082 117.257C344.045 118.279 336.008 114.501 327.97 106.99C319.933 99.4781 311.896 88.2335 303.858 84.5271C295.821 80.8207 287.784 84.6525 279.746 91.1232C271.709 97.5939 263.672 106.704 255.634 110.676C247.597 114.648 239.56 113.482 231.522 110.214C223.485 106.946 215.447 101.575 207.41 90.9641C199.373 80.3532 191.335 64.502 187.317 56.5765L187.317 56.5764Z" fill="url(#paint1_linear_1296_1077)"/>
</g>
<path d="M183.298 48.6509L187.317 56.5764C191.335 64.502 199.373 80.3532 207.41 90.9641C215.447 101.575 223.485 106.946 231.522 110.214C239.56 113.482 247.597 114.648 255.634 110.676C263.672 106.704 271.709 97.5939 279.746 91.1232C287.784 84.6524 295.821 80.8207 303.858 84.5271C311.896 88.2335 319.933 99.4781 327.97 106.99C336.008 114.501 344.045 118.279 352.082 117.257C360.12 116.235 368.157 110.413 376.194 108.239C384.232 106.065 392.269 107.538 400.306 105.692C408.344 103.846 416.381 98.6807 424.418 96.0523C432.456 93.4239 440.493 93.3326 448.53 100.475C456.568 107.617 464.605 121.993 472.642 125.913C480.68 129.833 488.717 123.298 496.755 121.358C504.792 119.419 512.829 122.075 520.867 129.114C528.904 136.153 536.941 147.573 540.96 153.284L544.979 158.994" stroke="url(#paint2_linear_1296_1077)" stroke-width="2.04339" stroke-linecap="round"/>
<circle cx="297.728" cy="83.3885" r="5.10848" fill="#639FFF"/>
<circle cx="297.728" cy="83.3885" r="3.11609" transform="rotate(-0.963067 297.728 83.3885)" fill="white"/>
</g>
<rect x="60.6943" y="55" width="89.9093" height="24.5207" rx="8.17357" fill="#F2F7FF"/>
<rect x="64.7812" y="59.0867" width="16.3471" height="16.3471" rx="6" fill="#639FFF"/>
<rect x="64.7812" y="91.781" width="16.3471" height="16.3471" rx="6" fill="#F5F5F5"/>
<rect x="64.7812" y="120.388" width="16.3471" height="16.3471" rx="6" fill="#F5F5F5"/>
<rect x="64.7812" y="148.996" width="16.3471" height="16.3471" rx="6" fill="#F5F5F5"/>
<rect x="64.7812" y="177.604" width="16.3471" height="16.3471" rx="6" fill="#F5F5F5"/>
<rect x="91.3452" y="64.1953" width="44.9546" height="6.13018" rx="3.06509" fill="#639FFF"/>
<rect x="91" y="97" width="41" height="6" rx="3" fill="#F5F5F5"/>
<rect x="91" y="126" width="47" height="6" rx="3" fill="#F5F5F5"/>
<rect x="91" y="154" width="33" height="6" rx="3" fill="#F5F5F5"/>
<rect x="91" y="183" width="39" height="6" rx="3" fill="#F5F5F5"/>
<defs>
<filter id="filter0_dd_1296_1077" x="0" y="0" width="587.282" height="395.203" filterUnits="userSpaceOnUse" color-interpolation-filters="sRGB">
<feFlood flood-opacity="0" result="BackgroundImageFix"/>
<feColorMatrix in="SourceAlpha" type="matrix" values="0 0 0 0 0 0 0 0 0 0 0 0 0 0 0 0 0 0 127 0" result="hardAlpha"/>
<feMorphology radius="4" operator="erode" in="SourceAlpha" result="effect1_dropShadow_1296_1077"/>
<feOffset dy="10"/>
<feGaussianBlur stdDeviation="16"/>
<feColorMatrix type="matrix" values="0 0 0 0 0 0 0 0 0 0.0612745 0 0 0 0 0.208333 0 0 0 0.1 0"/>
<feBlend mode="normal" in2="BackgroundImageFix" result="effect1_dropShadow_1296_1077"/>
<feColorMatrix in="SourceAlpha" type="matrix" values="0 0 0 0 0 0 0 0 0 0 0 0 0 0 0 0 0 0 127 0" result="hardAlpha"/>
<feMorphology radius="6" operator="erode" in="SourceAlpha" result="effect2_dropShadow_1296_1077"/>
<feOffset dy="6"/>
<feGaussianBlur stdDeviation="7"/>
<feColorMatrix type="matrix" values="0 0 0 0 0 0 0 0 0 0.294118 0 0 0 0 1 0 0 0 0.12 0"/>
<feBlend mode="normal" in2="effect1_dropShadow_1296_1077" result="effect2_dropShadow_1296_1077"/>
<feBlend mode="normal" in="SourceGraphic" in2="effect2_dropShadow_1296_1077" result="shape"/>
</filter>
<filter id="filter1_dd_1296_1077" x="139.298" y="143.211" width="524.702" height="296.426" filterUnits="userSpaceOnUse" color-interpolation-filters="sRGB">
<feFlood flood-opacity="0" result="BackgroundImageFix"/>
<feColorMatrix in="SourceAlpha" type="matrix" values="0 0 0 0 0 0 0 0 0 0 0 0 0 0 0 0 0 0 127 0" result="hardAlpha"/>
<feMorphology radius="4" operator="erode" in="SourceAlpha" result="effect1_dropShadow_1296_1077"/>
<feOffset dy="18"/>
<feGaussianBlur stdDeviation="24"/>
<feColorMatrix type="matrix" values="0 0 0 0 0.0941176 0 0 0 0 0.152941 0 0 0 0 0.294118 0 0 0 0.08 0"/>
<feBlend mode="normal" in2="BackgroundImageFix" result="effect1_dropShadow_1296_1077"/>
<feColorMatrix in="SourceAlpha" type="matrix" values="0 0 0 0 0 0 0 0 0 0 0 0 0 0 0 0 0 0 127 0" result="hardAlpha"/>
<feMorphology radius="6" operator="erode" in="SourceAlpha" result="effect2_dropShadow_1296_1077"/>
<feOffset dy="8"/>
<feGaussianBlur stdDeviation="14"/>
<feColorMatrix type="matrix" values="0 0 0 0 0.0941176 0 0 0 0 0.152941 0 0 0 0 0.294118 0 0 0 0.04 0"/>
<feBlend mode="normal" in2="effect1_dropShadow_1296_1077" result="effect2_dropShadow_1296_1077"/>
<feBlend mode="normal" in="SourceGraphic" in2="effect2_dropShadow_1296_1077" result="shape"/>
</filter>
<linearGradient id="paint0_linear_1296_1077" x1="361.5" y1="60.5" x2="360" y2="144.5" gradientUnits="userSpaceOnUse">
<stop stop-color="#DEDEDE"/>
<stop offset="1" stop-color="white" stop-opacity="0"/>
</linearGradient>
<linearGradient id="paint1_linear_1296_1077" x1="533.5" y1="104" x2="191.5" y2="104" gradientUnits="userSpaceOnUse">
<stop stop-color="#DEDEDE" stop-opacity="0"/>
<stop offset="0.510417" stop-color="#639FFF"/>
<stop offset="1" stop-color="white" stop-opacity="0"/>
</linearGradient>
<linearGradient id="paint2_linear_1296_1077" x1="535" y1="71.5" x2="191" y2="69" gradientUnits="userSpaceOnUse">
<stop offset="0.0129129" stop-color="#639FFF" stop-opacity="0"/>
<stop offset="0.375814" stop-color="#639FFF"/>
<stop offset="0.852023" stop-color="#639FFF"/>
<stop offset="0.995773" stop-color="#639FFF" stop-opacity="0"/>
</linearGradient>
<clipPath id="clip0_1296_1077">
<rect width="7.44379" height="7.44379" fill="white" transform="translate(488.921 212.633) rotate(90)"/>
</clipPath>
<clipPath id="clip1_1296_1077">
<rect width="7.44379" height="7.44379" fill="white" transform="translate(481.477 259.777) rotate(-90)"/>
</clipPath>
<clipPath id="clip2_1296_1077">
<rect width="7.44379" height="7.44379" fill="white" transform="translate(481.477 299.477) rotate(-90)"/>
</clipPath>
<clipPath id="clip3_1296_1077">
<rect width="343.29" height="102.17" fill="white" transform="translate(191.471 42.5208)"/>
</clipPath>
</defs>
</svg>
