<svg width="532" height="491" viewBox="0 0 532 491" fill="none" xmlns="http://www.w3.org/2000/svg">
<g filter="url(#filter0_dd_1296_1143)">
<rect x="28" y="104" width="445" height="220" rx="8" fill="white"/>
</g>
<rect x="44" y="116" width="49" height="8" rx="4" fill="#F0F0F0"/>
<rect x="146" y="116" width="39" height="8" rx="4" fill="#F0F0F0"/>
<rect x="146" y="148" width="39" height="8" rx="4" fill="#F0F0F0"/>
<rect x="146" y="184" width="26" height="8" rx="4" fill="#DEDEDE"/>
<rect x="146" y="220" width="33" height="8" rx="4" fill="#F0F0F0"/>
<rect x="76" y="220" width="38" height="8" rx="4" fill="#F0F0F0"/>
<rect x="76" y="256" width="27" height="8" rx="4" fill="#DEDEDE"/>
<rect x="76" y="184" width="27" height="8" rx="4" fill="#DEDEDE"/>
<rect x="76" y="148" width="23" height="8" rx="4" fill="#F0F0F0"/>
<rect x="146" y="256" width="46" height="8" rx="4" fill="#DEDEDE"/>
<g filter="url(#filter1_dd_1296_1143)">
<path d="M204 48C204 43.5817 207.582 40 212 40H476C480.418 40 484 43.5817 484 48V427C484 431.418 480.418 435 476 435H212C207.582 435 204 431.418 204 427V48Z" fill="white"/>
</g>
<path d="M231.972 228.273H230.915L228.733 229.722V230.795L230.864 229.381H230.915V237H231.972V228.273ZM237.209 237.119C238.871 237.119 240.089 235.892 240.089 234.222C240.089 232.53 238.913 231.29 237.311 231.29C236.723 231.29 236.152 231.499 235.794 231.784H235.743L236.05 229.21H239.697V228.273H235.163L234.635 232.568L235.624 232.688C235.986 232.428 236.604 232.24 237.141 232.244C238.253 232.253 239.067 233.097 239.067 234.239C239.067 235.359 238.283 236.182 237.209 236.182C236.314 236.182 235.602 235.607 235.521 234.818H234.499C234.562 236.148 235.709 237.119 237.209 237.119ZM242.204 237.068C242.626 237.068 242.971 236.723 242.971 236.301C242.971 235.879 242.626 235.534 242.204 235.534C241.782 235.534 241.437 235.879 241.437 236.301C241.437 236.723 241.782 237.068 242.204 237.068ZM247.31 237.119C248.972 237.119 250.191 235.892 250.191 234.222C250.191 232.53 249.015 231.29 247.413 231.29C246.825 231.29 246.254 231.499 245.896 231.784H245.844L246.151 229.21H249.799V228.273H245.265L244.737 232.568L245.725 232.688C246.087 232.428 246.705 232.24 247.242 232.244C248.354 232.253 249.168 233.097 249.168 234.239C249.168 235.359 248.384 236.182 247.31 236.182C246.415 236.182 245.704 235.607 245.623 234.818H244.6C244.664 236.148 245.81 237.119 247.31 237.119ZM255.276 237H256.282V232.909C256.282 231.95 256.98 231.273 257.765 231.273C258.527 231.273 259.06 231.771 259.06 232.517V237H260.083V232.739C260.083 231.895 260.611 231.273 261.532 231.273C262.248 231.273 262.861 231.652 262.861 232.619V237H263.867V232.619C263.867 231.081 263.04 230.369 261.873 230.369C260.935 230.369 260.249 230.8 259.912 231.477H259.844C259.52 230.778 258.949 230.369 258.088 230.369C257.236 230.369 256.605 230.778 256.333 231.477H256.248V230.455H255.276V237ZM266.711 228.273H265.706V237H266.711V228.273Z" fill="#0C211A"/>
<path d="M230.114 290.273H229.057V299H230.114V290.273ZM233.102 295.062C233.102 293.92 233.809 293.273 234.772 293.273C235.706 293.273 236.272 293.882 236.272 294.909V299H237.278V294.841C237.278 293.17 236.387 292.369 235.062 292.369C234.074 292.369 233.46 292.812 233.153 293.477H233.068V292.455H232.096V299H233.102V295.062ZM245.371 299.119C247.136 299.141 248.286 297.811 248.286 296.188C248.286 294.5 247.038 293.29 245.542 293.29C244.643 293.29 243.871 293.729 243.394 294.449H243.326C243.33 292.322 244.157 291.091 245.508 291.091C246.428 291.091 246.982 291.67 247.178 292.455H248.218C248.005 291.099 246.974 290.153 245.508 290.153C243.543 290.153 242.337 291.892 242.337 294.977C242.337 298.203 243.94 299.102 245.371 299.119ZM245.371 298.182C244.276 298.182 243.475 297.249 243.479 296.205C243.484 295.161 244.323 294.227 245.406 294.227C246.475 294.227 247.263 295.105 247.263 296.188C247.263 297.295 246.441 298.182 245.371 298.182ZM253.354 299H254.36V294.909C254.36 293.95 255.059 293.273 255.843 293.273C256.605 293.273 257.138 293.771 257.138 294.517V299H258.161V294.739C258.161 293.895 258.689 293.273 259.61 293.273C260.326 293.273 260.939 293.652 260.939 294.619V299H261.945V294.619C261.945 293.081 261.118 292.369 259.951 292.369C259.013 292.369 258.327 292.8 257.99 293.477H257.922C257.598 292.778 257.027 292.369 256.167 292.369C255.314 292.369 254.684 292.778 254.411 293.477H254.326V292.455H253.354V299ZM266.443 299.136C268.216 299.136 269.409 297.79 269.409 295.761C269.409 293.716 268.216 292.369 266.443 292.369C264.67 292.369 263.477 293.716 263.477 295.761C263.477 297.79 264.67 299.136 266.443 299.136ZM266.443 298.233C265.096 298.233 264.483 297.074 264.483 295.761C264.483 294.449 265.096 293.273 266.443 293.273C267.789 293.273 268.403 294.449 268.403 295.761C268.403 297.074 267.789 298.233 266.443 298.233ZM271.95 295.062C271.95 293.92 272.657 293.273 273.62 293.273C274.553 293.273 275.12 293.882 275.12 294.909V299H276.126V294.841C276.126 293.17 275.235 292.369 273.91 292.369C272.921 292.369 272.308 292.812 272.001 293.477H271.915V292.455H270.944V299H271.95V295.062ZM280.81 292.455H279.412V290.886H278.407V292.455H277.418V293.307H278.407V297.398C278.407 298.54 279.327 299.085 280.179 299.085C280.554 299.085 280.793 299.017 280.929 298.966L280.725 298.062C280.64 298.08 280.503 298.114 280.282 298.114C279.838 298.114 279.412 297.977 279.412 297.125V293.307H280.81V292.455ZM283.469 295.062C283.469 293.92 284.198 293.273 285.191 293.273C286.137 293.273 286.708 293.869 286.708 294.909V299H287.713V294.841C287.713 293.158 286.819 292.369 285.48 292.369C284.449 292.369 283.861 292.8 283.554 293.477H283.469V290.273H282.463V299H283.469V295.062ZM294.19 293.92C293.874 292.991 293.167 292.369 291.871 292.369C290.491 292.369 289.468 293.153 289.468 294.261C289.468 295.165 290.005 295.77 291.207 296.051L292.298 296.307C292.958 296.46 293.269 296.776 293.269 297.227C293.269 297.79 292.673 298.25 291.735 298.25C290.913 298.25 290.397 297.896 290.218 297.193L289.263 297.432C289.498 298.544 290.414 299.136 291.752 299.136C293.273 299.136 294.309 298.305 294.309 297.176C294.309 296.264 293.738 295.689 292.57 295.403L291.599 295.165C290.823 294.973 290.474 294.713 290.474 294.21C290.474 293.648 291.07 293.239 291.871 293.239C292.749 293.239 293.112 293.724 293.286 294.176L294.19 293.92Z" fill="#0C211A"/>
<path d="M455 63.9999L450.757 59.7573M459.243 59.7573L455 63.9999L459.243 59.7573ZM455 63.9999L450.757 68.2426L455 63.9999ZM455 63.9999L459.243 68.2426L455 63.9999Z" stroke="#DEDEDE" stroke-width="2" stroke-linecap="round" stroke-linejoin="round"/>
<path d="M238.67 58.3636H236.932V66.9091H236.824L230.903 58.3636H229.278V70H231.034V61.4659H231.142L237.057 70H238.67V58.3636ZM244.857 70.1761C246.76 70.1761 248.107 69.2386 248.493 67.8182L246.885 67.5284C246.578 68.3523 245.839 68.7727 244.874 68.7727C243.419 68.7727 242.442 67.8295 242.396 66.1477H248.601V65.5455C248.601 62.392 246.714 61.1591 244.737 61.1591C242.305 61.1591 240.703 63.0114 240.703 65.6932C240.703 68.4034 242.283 70.1761 244.857 70.1761ZM242.402 64.875C242.47 63.6364 243.368 62.5625 244.749 62.5625C246.067 62.5625 246.93 63.5398 246.936 64.875H242.402ZM252.362 70H254.089L255.862 63.6989H255.993L257.766 70H259.499L262.061 61.2727H260.305L258.607 67.6534H258.521L256.817 61.2727H255.061L253.345 67.6818H253.26L251.55 61.2727H249.794L252.362 70ZM267.908 70H269.607V64.6193C269.607 63.4432 270.43 62.625 271.396 62.625C272.339 62.625 272.993 63.25 272.993 64.1989V70H274.686V64.4375C274.686 63.3864 275.328 62.625 276.436 62.625C277.334 62.625 278.072 63.125 278.072 64.3068V70H279.771V64.1477C279.771 62.1534 278.658 61.1591 277.078 61.1591C275.822 61.1591 274.879 61.7614 274.459 62.6932H274.368C273.987 61.7386 273.186 61.1591 272.021 61.1591C270.868 61.1591 270.01 61.733 269.646 62.6932H269.538V61.2727H267.908V70ZM285.81 70.1761C287.713 70.1761 289.06 69.2386 289.446 67.8182L287.838 67.5284C287.531 68.3523 286.793 68.7727 285.827 68.7727C284.372 68.7727 283.395 67.8295 283.349 66.1477H289.554V65.5455C289.554 62.392 287.668 61.1591 285.69 61.1591C283.259 61.1591 281.656 63.0114 281.656 65.6932C281.656 68.4034 283.236 70.1761 285.81 70.1761ZM283.355 64.875C283.423 63.6364 284.321 62.5625 285.702 62.5625C287.02 62.5625 287.884 63.5398 287.889 64.875H283.355ZM294.706 70.1705C296.297 70.1705 296.922 69.1989 297.229 68.642H297.371V70H299.03V58.3636H297.331V62.6875H297.229C296.922 62.1477 296.342 61.1591 294.717 61.1591C292.609 61.1591 291.058 62.8239 291.058 65.6534C291.058 68.4773 292.587 70.1705 294.706 70.1705ZM295.081 68.7216C293.564 68.7216 292.774 67.3864 292.774 65.6364C292.774 63.9034 293.547 62.6023 295.081 62.6023C296.564 62.6023 297.359 63.8125 297.359 65.6364C297.359 67.4716 296.547 68.7216 295.081 68.7216ZM301.455 70H303.153V61.2727H301.455V70ZM302.312 59.9261C302.898 59.9261 303.386 59.4716 303.386 58.9148C303.386 58.358 302.898 57.8977 302.312 57.8977C301.722 57.8977 301.239 58.358 301.239 58.9148C301.239 59.4716 301.722 59.9261 302.312 59.9261ZM309.115 70.1761C311.178 70.1761 312.513 68.9375 312.7 67.2386H311.047C310.831 68.1818 310.098 68.7386 309.126 68.7386C307.689 68.7386 306.763 67.5398 306.763 65.6364C306.763 63.767 307.706 62.5909 309.126 62.5909C310.206 62.5909 310.865 63.2727 311.047 64.0909H312.7C312.518 62.3295 311.081 61.1591 309.098 61.1591C306.638 61.1591 305.047 63.0114 305.047 65.6761C305.047 68.3068 306.581 70.1761 309.115 70.1761ZM317.057 70.1932C318.5 70.1932 319.312 69.4602 319.636 68.8068H319.705V70H321.364V64.2045C321.364 61.6648 319.364 61.1591 317.977 61.1591C316.398 61.1591 314.943 61.7955 314.375 63.3864L315.972 63.75C316.222 63.1307 316.858 62.5341 318 62.5341C319.097 62.5341 319.659 63.108 319.659 64.0966V64.1364C319.659 64.7557 319.023 64.7443 317.455 64.9261C315.801 65.1193 314.108 65.5511 314.108 67.5341C314.108 69.25 315.398 70.1932 317.057 70.1932ZM317.426 68.8295C316.466 68.8295 315.773 68.3977 315.773 67.5568C315.773 66.6477 316.58 66.3239 317.562 66.1932C318.114 66.1193 319.42 65.9716 319.665 65.7273V66.8523C319.665 67.8864 318.841 68.8295 317.426 68.8295ZM327.7 61.2727H325.911V59.1818H324.212V61.2727H322.933V62.6364H324.212V67.7898C324.206 69.375 325.416 70.142 326.757 70.1136C327.297 70.108 327.661 70.0057 327.859 69.9318L327.553 68.5284C327.439 68.5511 327.229 68.6023 326.956 68.6023C326.405 68.6023 325.911 68.4205 325.911 67.4375V62.6364H327.7V61.2727ZM329.58 70H331.278V61.2727H329.58V70ZM330.438 59.9261C331.023 59.9261 331.511 59.4716 331.511 58.9148C331.511 58.358 331.023 57.8977 330.438 57.8977C329.847 57.8977 329.364 58.358 329.364 58.9148C329.364 59.4716 329.847 59.9261 330.438 59.9261ZM337.24 70.1761C339.7 70.1761 341.308 68.375 341.308 65.6761C341.308 62.9602 339.7 61.1591 337.24 61.1591C334.78 61.1591 333.172 62.9602 333.172 65.6761C333.172 68.375 334.78 70.1761 337.24 70.1761ZM337.246 68.75C335.638 68.75 334.888 67.3466 334.888 65.6705C334.888 64 335.638 62.5795 337.246 62.5795C338.842 62.5795 339.592 64 339.592 65.6705C339.592 67.3466 338.842 68.75 337.246 68.75ZM344.903 64.8182C344.903 63.4261 345.756 62.6307 346.938 62.6307C348.091 62.6307 348.79 63.3864 348.79 64.6534V70H350.489V64.4489C350.489 62.2898 349.301 61.1591 347.517 61.1591C346.205 61.1591 345.347 61.767 344.943 62.6932H344.835V61.2727H343.205V70H344.903V64.8182Z" fill="#0C211A"/>
<path d="M228.528 117.406H231.247V125H232.56V117.406H235.283V116.273H228.528V117.406ZM236.728 127.455C237.781 127.455 238.446 126.905 238.825 125.874L241.531 118.467L240.154 118.455L238.497 123.534H238.429L236.771 118.455H235.407L237.802 125.085L237.645 125.52C237.321 126.389 236.865 126.462 236.166 126.27L235.859 127.314C236.012 127.382 236.345 127.455 236.728 127.455ZM242.732 127.455H244.006V123.982H244.082C244.312 124.399 244.781 125.128 245.974 125.128C247.56 125.128 248.71 123.858 248.71 121.74C248.71 119.618 247.543 118.369 245.962 118.369C244.747 118.369 244.308 119.111 244.082 119.516H243.976V118.455H242.732V127.455ZM243.98 121.727C243.98 120.359 244.577 119.452 245.689 119.452C246.844 119.452 247.423 120.428 247.423 121.727C247.423 123.04 246.827 124.041 245.689 124.041C244.594 124.041 243.98 123.104 243.98 121.727ZM252.959 125.132C254.386 125.132 255.396 124.429 255.686 123.364L254.48 123.146C254.25 123.764 253.696 124.08 252.972 124.08C251.881 124.08 251.148 123.372 251.114 122.111H255.767V121.659C255.767 119.294 254.352 118.369 252.869 118.369C251.045 118.369 249.844 119.759 249.844 121.77C249.844 123.803 251.028 125.132 252.959 125.132ZM251.118 121.156C251.169 120.227 251.842 119.422 252.878 119.422C253.866 119.422 254.514 120.155 254.518 121.156H251.118Z" fill="#0C211A"/>
<path d="M231.784 216C234.443 216 235.982 214.351 235.982 211.624C235.982 208.909 234.443 207.273 231.874 207.273H228.959V216H231.784ZM230.276 214.849V208.423H231.793C233.702 208.423 234.686 209.565 234.686 211.624C234.686 213.69 233.702 214.849 231.712 214.849H230.276ZM240.274 216.132C242.119 216.132 243.325 214.781 243.325 212.757C243.325 210.72 242.119 209.369 240.274 209.369C238.429 209.369 237.223 210.72 237.223 212.757C237.223 214.781 238.429 216.132 240.274 216.132ZM240.278 215.062C239.072 215.062 238.51 214.01 238.51 212.753C238.51 211.5 239.072 210.435 240.278 210.435C241.475 210.435 242.038 211.5 242.038 212.753C242.038 214.01 241.475 215.062 240.278 215.062ZM249.652 211.053C249.388 210.034 248.591 209.369 247.176 209.369C245.697 209.369 244.649 210.149 244.649 211.308C244.649 212.237 245.212 212.855 246.439 213.128L247.547 213.371C248.178 213.511 248.472 213.793 248.472 214.202C248.472 214.709 247.93 215.105 247.095 215.105C246.332 215.105 245.842 214.777 245.689 214.134L244.457 214.321C244.67 215.48 245.634 216.132 247.104 216.132C248.685 216.132 249.78 215.293 249.78 214.108C249.78 213.183 249.192 212.612 247.99 212.335L246.95 212.097C246.23 211.926 245.919 211.683 245.923 211.24C245.919 210.737 246.464 210.379 247.189 210.379C247.982 210.379 248.348 210.818 248.497 211.257L249.652 211.053ZM254.002 216.132C255.429 216.132 256.439 215.429 256.729 214.364L255.523 214.146C255.293 214.764 254.739 215.08 254.015 215.08C252.924 215.08 252.191 214.372 252.157 213.111H256.81V212.659C256.81 210.294 255.395 209.369 253.912 209.369C252.088 209.369 250.887 210.759 250.887 212.77C250.887 214.803 252.071 216.132 254.002 216.132ZM252.161 212.156C252.212 211.227 252.885 210.422 253.921 210.422C254.909 210.422 255.557 211.155 255.561 212.156H252.161Z" fill="#0C211A"/>
<path d="M228.959 278H230.276V274.697H232.065C232.095 274.697 232.121 274.697 232.151 274.697L233.923 278H235.423L233.489 274.467C234.558 274.071 235.091 273.18 235.091 272.009C235.091 270.402 234.094 269.273 232.07 269.273H228.959V278ZM230.276 273.564V270.402H231.929C233.229 270.402 233.766 271.02 233.766 272.009C233.766 272.993 233.229 273.564 231.946 273.564H230.276ZM239.33 278.132C240.757 278.132 241.767 277.429 242.057 276.364L240.851 276.146C240.621 276.764 240.067 277.08 239.343 277.08C238.252 277.08 237.519 276.372 237.485 275.111H242.138V274.659C242.138 272.294 240.723 271.369 239.24 271.369C237.417 271.369 236.215 272.759 236.215 274.77C236.215 276.803 237.4 278.132 239.33 278.132ZM237.489 274.156C237.54 273.227 238.213 272.422 239.249 272.422C240.238 272.422 240.885 273.155 240.89 274.156H237.489ZM243.552 278H244.826V273.964C244.826 273.082 245.444 272.469 246.168 272.469C246.876 272.469 247.366 272.938 247.366 273.649V278H248.636V273.828C248.636 273.04 249.117 272.469 249.948 272.469C250.621 272.469 251.175 272.844 251.175 273.73V278H252.45V273.611C252.45 272.115 251.614 271.369 250.43 271.369C249.488 271.369 248.781 271.821 248.465 272.52H248.397C248.112 271.804 247.511 271.369 246.637 271.369C245.772 271.369 245.129 271.8 244.856 272.52H244.775V271.455H243.552V278ZM254.157 278H255.431V271.455H254.157V278ZM254.801 270.445C255.24 270.445 255.606 270.104 255.606 269.686C255.606 269.268 255.24 268.923 254.801 268.923C254.358 268.923 253.995 269.268 253.995 269.686C253.995 270.104 254.358 270.445 254.801 270.445ZM258.42 274.114C258.42 273.07 259.059 272.473 259.945 272.473C260.81 272.473 261.335 273.04 261.335 273.99V278H262.609V273.837C262.609 272.217 261.718 271.369 260.38 271.369C259.396 271.369 258.752 271.825 258.45 272.52H258.369V271.455H257.146V278H258.42V274.114ZM266.768 278.128C267.961 278.128 268.43 277.399 268.66 276.982H268.766V278H270.011V269.273H268.737V272.516H268.66C268.43 272.111 267.995 271.369 266.776 271.369C265.195 271.369 264.032 272.618 264.032 274.74C264.032 276.858 265.178 278.128 266.768 278.128ZM267.049 277.041C265.911 277.041 265.319 276.04 265.319 274.727C265.319 273.428 265.898 272.452 267.049 272.452C268.161 272.452 268.758 273.359 268.758 274.727C268.758 276.104 268.148 277.041 267.049 277.041ZM277.455 278.128C278.648 278.128 279.117 277.399 279.347 276.982H279.454V278H280.698V269.273H279.424V272.516H279.347C279.117 272.111 278.683 271.369 277.464 271.369C275.883 271.369 274.719 272.618 274.719 274.74C274.719 276.858 275.866 278.128 277.455 278.128ZM277.737 277.041C276.599 277.041 276.006 276.04 276.006 274.727C276.006 273.428 276.586 272.452 277.737 272.452C278.849 272.452 279.445 273.359 279.445 274.727C279.445 276.104 278.836 277.041 277.737 277.041ZM286.663 275.286C286.667 276.398 285.841 276.926 285.125 276.926C284.336 276.926 283.791 276.355 283.791 275.464V271.455H282.517V275.618C282.517 277.241 283.407 278.085 284.664 278.085C285.649 278.085 286.318 277.565 286.62 276.866H286.689V278H287.941V271.455H286.663V275.286ZM292.474 278.132C293.902 278.132 294.912 277.429 295.202 276.364L293.996 276.146C293.766 276.764 293.212 277.08 292.487 277.08C291.396 277.08 290.663 276.372 290.629 275.111H295.283V274.659C295.283 272.294 293.868 271.369 292.385 271.369C290.561 271.369 289.359 272.759 289.359 274.77C289.359 276.803 290.544 278.132 292.474 278.132ZM290.634 274.156C290.685 273.227 291.358 272.422 292.393 272.422C293.382 272.422 294.03 273.155 294.034 274.156H290.634Z" fill="#0C211A"/>
<path d="M236.003 332.273H234.699V338.682H234.618L230.178 332.273H228.959V341H230.276V334.599H230.357L234.793 341H236.003V332.273ZM240.578 341.132C242.424 341.132 243.63 339.781 243.63 337.757C243.63 335.72 242.424 334.369 240.578 334.369C238.733 334.369 237.527 335.72 237.527 337.757C237.527 339.781 238.733 341.132 240.578 341.132ZM240.583 340.062C239.377 340.062 238.814 339.01 238.814 337.753C238.814 336.5 239.377 335.435 240.583 335.435C241.78 335.435 242.343 336.5 242.343 337.753C242.343 339.01 241.78 340.062 240.583 340.062ZM248.107 334.455H246.765V332.886H245.491V334.455H244.532V335.477H245.491V339.342C245.487 340.531 246.394 341.107 247.4 341.085C247.805 341.081 248.077 341.004 248.227 340.949L247.996 339.896C247.911 339.913 247.754 339.952 247.549 339.952C247.136 339.952 246.765 339.815 246.765 339.078V335.477H248.107V334.455ZM252.267 341.132C253.695 341.132 254.705 340.429 254.995 339.364L253.789 339.146C253.559 339.764 253.005 340.08 252.28 340.08C251.189 340.08 250.456 339.372 250.422 338.111H255.076V337.659C255.076 335.294 253.661 334.369 252.178 334.369C250.354 334.369 249.152 335.759 249.152 337.77C249.152 339.803 250.337 341.132 252.267 341.132ZM250.426 337.156C250.478 336.227 251.151 335.422 252.186 335.422C253.175 335.422 253.823 336.155 253.827 337.156H250.426Z" fill="#0C211A"/>
<path d="M228 141C228 138.791 229.791 137 232 137H264C266.209 137 268 138.791 268 141V152C268 154.209 266.209 156 264 156H232C229.791 156 228 154.209 228 152V141Z" fill="#F0F0F0"/>
<path d="M236.705 143.182V149H237.364V144.58H237.42L239.239 149H239.875L241.693 144.58H241.75V149H242.409V143.182H241.568L239.591 148.011H239.523L237.545 143.182H236.705ZM245.015 149.102C245.776 149.102 246.174 148.693 246.31 148.409H246.344V149H247.015V146.125C247.015 144.739 245.958 144.58 245.401 144.58C244.742 144.58 243.992 144.807 243.651 145.602L244.288 145.83C244.435 145.511 244.785 145.17 245.424 145.17C246.04 145.17 246.344 145.497 246.344 146.057V146.08C246.344 146.403 246.015 146.375 245.219 146.477C244.41 146.582 243.526 146.761 243.526 147.761C243.526 148.614 244.185 149.102 245.015 149.102ZM245.117 148.5C244.583 148.5 244.197 148.261 244.197 147.795C244.197 147.284 244.663 147.125 245.185 147.057C245.469 147.023 246.231 146.943 246.344 146.807V147.42C246.344 147.966 245.913 148.5 245.117 148.5ZM250.136 144.636H249.205V143.591H248.534V144.636H247.875V145.205H248.534V147.932C248.534 148.693 249.148 149.057 249.716 149.057C249.966 149.057 250.125 149.011 250.216 148.977L250.08 148.375C250.023 148.386 249.932 148.409 249.784 148.409C249.489 148.409 249.205 148.318 249.205 147.75V145.205H250.136V144.636ZM251.145 149H251.815V146.239C251.815 145.648 252.281 145.216 252.918 145.216C253.097 145.216 253.281 145.25 253.327 145.261V144.58C253.25 144.574 253.074 144.568 252.974 144.568C252.452 144.568 251.997 144.864 251.838 145.295H251.793V144.636H251.145V149ZM254.121 149H254.792V144.636H254.121V149ZM254.462 143.909C254.724 143.909 254.94 143.705 254.94 143.455C254.94 143.205 254.724 143 254.462 143C254.201 143 253.985 143.205 253.985 143.455C253.985 143.705 254.201 143.909 254.462 143.909ZM256.52 144.636H255.747L257.134 146.818L255.747 149H256.52L257.565 147.307L258.611 149H259.384L257.974 146.818L259.384 144.636H258.611L257.565 146.42L256.52 144.636Z" fill="#0C211A"/>
<path d="M282 164C282 161.791 283.791 160 286 160H328C330.209 160 332 161.791 332 164V175C332 177.209 330.209 179 328 179H286C283.791 179 282 177.209 282 175V164Z" fill="#F0F0F0"/>
<path d="M290.705 172H291.409V169.875H292.682C294.037 169.875 294.648 169.051 294.648 168.023C294.648 166.994 294.037 166.182 292.67 166.182H290.705V172ZM291.409 169.25V166.807H292.648C293.594 166.807 293.955 167.324 293.955 168.023C293.955 168.722 293.594 169.25 292.659 169.25H291.409ZM297.474 172.091C298.361 172.091 299.009 171.648 299.213 170.989L298.565 170.807C298.395 171.261 298 171.489 297.474 171.489C296.688 171.489 296.145 170.98 296.114 170.045H299.281V169.761C299.281 168.136 298.315 167.58 297.406 167.58C296.224 167.58 295.44 168.511 295.44 169.852C295.44 171.193 296.213 172.091 297.474 172.091ZM296.114 169.466C296.159 168.787 296.639 168.182 297.406 168.182C298.134 168.182 298.599 168.727 298.599 169.466H296.114ZM300.972 169.375C300.972 168.614 301.443 168.182 302.085 168.182C302.707 168.182 303.085 168.588 303.085 169.273V172H303.756V169.227C303.756 168.114 303.162 167.58 302.278 167.58C301.619 167.58 301.21 167.875 301.006 168.318H300.949V167.636H300.301V172H300.972V169.375ZM304.981 172H305.651V167.636H304.981V172ZM305.322 166.909C305.583 166.909 305.799 166.705 305.799 166.455C305.799 166.205 305.583 166 305.322 166C305.06 166 304.844 166.205 304.844 166.455C304.844 166.705 305.06 166.909 305.322 166.909ZM308.652 172.091C309.618 172.091 310.254 171.5 310.368 170.727H309.697C309.572 171.205 309.175 171.489 308.652 171.489C307.857 171.489 307.345 170.83 307.345 169.818C307.345 168.83 307.868 168.182 308.652 168.182C309.243 168.182 309.595 168.545 309.697 168.943H310.368C310.254 168.125 309.561 167.58 308.641 167.58C307.459 167.58 306.675 168.511 306.675 169.841C306.675 171.148 307.425 172.091 308.652 172.091ZM311.348 172H312.018V167.636H311.348V172ZM311.689 166.909C311.95 166.909 312.166 166.705 312.166 166.455C312.166 166.205 311.95 166 311.689 166C311.428 166 311.212 166.205 311.212 166.455C311.212 166.705 311.428 166.909 311.689 166.909ZM313.917 166.182H313.246V172H313.917V166.182ZM315.815 166.182H315.145V172H315.815V166.182ZM317.043 172H317.714V167.636H317.043V172ZM317.384 166.909C317.646 166.909 317.862 166.705 317.862 166.455C317.862 166.205 317.646 166 317.384 166C317.123 166 316.907 166.205 316.907 166.455C316.907 166.705 317.123 166.909 317.384 166.909ZM319.612 169.375C319.612 168.614 320.084 168.182 320.726 168.182C321.348 168.182 321.726 168.588 321.726 169.273V172H322.396V169.227C322.396 168.114 321.803 167.58 320.919 167.58C320.26 167.58 319.851 167.875 319.646 168.318H319.589V167.636H318.942V172H319.612V169.375Z" fill="#0C211A"/>
<rect x="336" y="160" width="61" height="19" rx="4" fill="#F0F0F0"/>
<path d="M348 169.5H346M348 167.5V169.5V167.5ZM348 169.5V171.5V169.5ZM348 169.5H350H348Z" stroke="#0C211A" stroke-linecap="round" stroke-linejoin="round"/>
<path d="M360.318 166.182H359.625V170.761H359.568L356.386 166.182H355.705V172H356.409V167.432H356.466L359.636 172H360.318V166.182ZM363.467 172.091C364.353 172.091 365.001 171.648 365.205 170.989L364.558 170.807C364.387 171.261 363.992 171.489 363.467 171.489C362.68 171.489 362.137 170.98 362.106 170.045H365.273V169.761C365.273 168.136 364.308 167.58 363.398 167.58C362.217 167.58 361.433 168.511 361.433 169.852C361.433 171.193 362.205 172.091 363.467 172.091ZM362.106 169.466C362.151 168.787 362.631 168.182 363.398 168.182C364.126 168.182 364.592 168.727 364.592 169.466H362.106ZM367.282 172H367.941L368.896 168.648H368.964L369.918 172H370.577L371.907 167.636H371.202L370.259 170.966H370.214L369.293 167.636H368.577L367.646 170.977H367.6L366.657 167.636H365.952L367.282 172ZM376.941 167.636H376.009V166.591H375.339V167.636H374.68V168.205H375.339V170.932C375.339 171.693 375.952 172.057 376.521 172.057C376.771 172.057 376.93 172.011 377.021 171.977L376.884 171.375C376.827 171.386 376.737 171.409 376.589 171.409C376.293 171.409 376.009 171.318 376.009 170.75V168.205H376.941V167.636ZM378.381 173.636C378.987 173.636 379.413 173.315 379.665 172.636L381.523 167.648L380.79 167.636L379.586 171.114H379.54L378.336 167.636H377.609L379.222 172.023L379.097 172.364C378.853 173.028 378.552 173.091 378.063 172.966L377.893 173.557C377.961 173.591 378.154 173.636 378.381 173.636ZM382.411 173.636H383.081V171.33H383.138C383.286 171.568 383.57 172.091 384.411 172.091C385.501 172.091 386.263 171.216 386.263 169.83C386.263 168.455 385.501 167.58 384.399 167.58C383.547 167.58 383.286 168.102 383.138 168.33H383.058V167.636H382.411V173.636ZM383.07 169.818C383.07 168.841 383.501 168.182 384.32 168.182C385.172 168.182 385.592 168.898 385.592 169.818C385.592 170.75 385.161 171.489 384.32 171.489C383.513 171.489 383.07 170.807 383.07 169.818ZM389.115 172.091C390.001 172.091 390.649 171.648 390.854 170.989L390.206 170.807C390.036 171.261 389.641 171.489 389.115 171.489C388.328 171.489 387.786 170.98 387.754 170.045H390.922V169.761C390.922 168.136 389.956 167.58 389.047 167.58C387.865 167.58 387.081 168.511 387.081 169.852C387.081 171.193 387.854 172.091 389.115 172.091ZM387.754 169.466C387.8 168.787 388.28 168.182 389.047 168.182C389.774 168.182 390.24 168.727 390.24 169.466H387.754Z" fill="#0C211A"/>
<path d="M272 141C272 138.791 273.791 137 276 137H323C325.209 137 327 138.791 327 141V152C327 154.209 325.209 156 323 156H276C273.791 156 272 154.209 272 152V141Z" fill="#639FFF"/>
<path d="M282.5 149C284.273 149 285.273 147.898 285.273 146.08C285.273 144.273 284.273 143.182 282.58 143.182H280.705V149H282.5ZM281.409 148.375V143.807H282.534C283.898 143.807 284.591 144.67 284.591 146.08C284.591 147.5 283.898 148.375 282.455 148.375H281.409ZM288.193 149.091C289.08 149.091 289.727 148.648 289.932 147.989L289.284 147.807C289.114 148.261 288.719 148.489 288.193 148.489C287.406 148.489 286.864 147.98 286.832 147.045H290V146.761C290 145.136 289.034 144.58 288.125 144.58C286.943 144.58 286.159 145.511 286.159 146.852C286.159 148.193 286.932 149.091 288.193 149.091ZM286.832 146.466C286.878 145.787 287.358 145.182 288.125 145.182C288.852 145.182 289.318 145.727 289.318 146.466H286.832ZM292.793 149.091C293.759 149.091 294.395 148.5 294.509 147.727H293.838C293.713 148.205 293.315 148.489 292.793 148.489C291.997 148.489 291.486 147.83 291.486 146.818C291.486 145.83 292.009 145.182 292.793 145.182C293.384 145.182 293.736 145.545 293.838 145.943H294.509C294.395 145.125 293.702 144.58 292.781 144.58C291.599 144.58 290.815 145.511 290.815 146.841C290.815 148.148 291.565 149.091 292.793 149.091ZM297.386 144.636H296.455V143.591H295.784V144.636H295.125V145.205H295.784V147.932C295.784 148.693 296.398 149.057 296.966 149.057C297.216 149.057 297.375 149.011 297.466 148.977L297.33 148.375C297.273 148.386 297.182 148.409 297.034 148.409C296.739 148.409 296.455 148.318 296.455 147.75V145.205H297.386V144.636ZM300.121 149.091C301.303 149.091 302.098 148.193 302.098 146.841C302.098 145.477 301.303 144.58 300.121 144.58C298.939 144.58 298.143 145.477 298.143 146.841C298.143 148.193 298.939 149.091 300.121 149.091ZM300.121 148.489C299.223 148.489 298.814 147.716 298.814 146.841C298.814 145.966 299.223 145.182 300.121 145.182C301.018 145.182 301.428 145.966 301.428 146.841C301.428 147.716 301.018 148.489 300.121 148.489ZM303.121 149H303.792V146.273C303.792 145.634 304.258 145.182 304.781 145.182C305.289 145.182 305.644 145.514 305.644 146.011V149H306.326V146.159C306.326 145.597 306.678 145.182 307.292 145.182C307.769 145.182 308.178 145.435 308.178 146.08V149H308.849V146.08C308.849 145.054 308.298 144.58 307.519 144.58C306.894 144.58 306.437 144.866 306.212 145.318H306.167C305.951 144.852 305.57 144.58 304.996 144.58C304.428 144.58 304.008 144.852 303.826 145.318H303.769V144.636H303.121V149ZM311.359 149.102C312.12 149.102 312.518 148.693 312.654 148.409H312.688V149H313.359V146.125C313.359 144.739 312.302 144.58 311.745 144.58C311.086 144.58 310.336 144.807 309.995 145.602L310.631 145.83C310.779 145.511 311.129 145.17 311.768 145.17C312.384 145.17 312.688 145.497 312.688 146.057V146.08C312.688 146.403 312.359 146.375 311.563 146.477C310.754 146.582 309.87 146.761 309.87 147.761C309.87 148.614 310.529 149.102 311.359 149.102ZM311.461 148.5C310.927 148.5 310.54 148.261 310.54 147.795C310.54 147.284 311.006 147.125 311.529 147.057C311.813 147.023 312.575 146.943 312.688 146.807V147.42C312.688 147.966 312.256 148.5 311.461 148.5ZM315.082 144.636H314.31L315.696 146.818L314.31 149H315.082L316.128 147.307L317.173 149H317.946L316.537 146.818L317.946 144.636H317.173L316.128 146.42L315.082 144.636Z" fill="white"/>
<path d="M331 141C331 138.791 332.791 137 335 137H363C365.209 137 367 138.791 367 141V152C367 154.209 365.209 156 363 156H335C332.791 156 331 154.209 331 152V141Z" fill="#F0F0F0"/>
<path d="M341.42 149.08C342.528 149.08 343.341 148.261 343.341 147.148C343.341 146.02 342.557 145.193 341.489 145.193C341.097 145.193 340.716 145.332 340.477 145.523H340.443L340.648 143.807H343.08V143.182H340.057L339.705 146.045L340.364 146.125C340.605 145.952 341.017 145.827 341.375 145.83C342.116 145.835 342.659 146.398 342.659 147.159C342.659 147.906 342.136 148.455 341.42 148.455C340.824 148.455 340.349 148.071 340.295 147.545H339.614C339.656 148.432 340.42 149.08 341.42 149.08ZM346.731 149H347.401V144.636H346.731V149ZM347.072 143.909C347.333 143.909 347.549 143.705 347.549 143.455C347.549 143.205 347.333 143 347.072 143C346.81 143 346.594 143.205 346.594 143.455C346.594 143.705 346.81 143.909 347.072 143.909ZM349.3 146.375C349.3 145.614 349.771 145.182 350.413 145.182C351.036 145.182 351.413 145.588 351.413 146.273V149H352.084V146.227C352.084 145.114 351.49 144.58 350.607 144.58C349.947 144.58 349.538 144.875 349.334 145.318H349.277V144.636H348.629V149H349.3V146.375ZM357.593 143.182H356.888L355.434 144.148V144.864L356.854 143.92H356.888V149H357.593V143.182Z" fill="#0C211A"/>
<path d="M371 141C371 138.791 372.791 137 375 137H407C409.209 137 411 138.791 411 141V152C411 154.209 409.209 156 407 156H375C372.791 156 371 154.209 371 152V141Z" fill="#F0F0F0"/>
<path d="M379.943 149L380.528 147.352H382.881L383.466 149H384.205L382.068 143.182H381.341L379.205 149H379.943ZM380.75 146.727L381.682 144.102H381.727L382.659 146.727H380.75ZM386.02 148.205H385.293L385.259 148.523C385.176 149.293 385.014 150.06 384.94 150.42H385.452C385.588 150.034 385.878 149.159 385.974 148.511L386.02 148.205ZM389.148 149C390.921 149 391.921 147.898 391.921 146.08C391.921 144.273 390.921 143.182 389.228 143.182H387.353V149H389.148ZM388.058 148.375V143.807H389.183C390.546 143.807 391.239 144.67 391.239 146.08C391.239 147.5 390.546 148.375 389.103 148.375H388.058ZM394.66 149.08C395.194 149.08 395.79 148.892 396.168 148.506L396.58 149H397.387L396.583 148.02C396.802 147.739 397.046 147.267 397.046 146.455H396.398C396.398 146.852 396.308 147.205 396.157 147.497L394.893 145.955L395.319 145.636C395.796 145.284 396.092 144.898 396.092 144.341C396.092 143.693 395.558 143.125 394.683 143.125C393.83 143.125 393.273 143.659 393.273 144.443C393.273 144.96 393.555 145.358 393.955 145.841C393.276 146.312 392.808 146.75 392.808 147.455C392.808 148.398 393.512 149.08 394.66 149.08ZM395.768 148.02C395.447 148.321 395.04 148.489 394.637 148.489C393.944 148.489 393.489 148 393.489 147.455C393.489 147.295 393.637 146.886 394.16 146.5L394.376 146.341L395.768 148.02ZM394.481 145.455C394.197 145.108 393.955 144.778 393.955 144.455C393.955 144.091 394.262 143.705 394.705 143.705C395.126 143.705 395.41 144.045 395.41 144.341C395.41 144.739 395.194 144.955 394.864 145.17L394.481 145.455ZM398.22 149H401.777V148.375H398.925V146.398H401.55V145.773H398.925V143.807H401.732V143.182H398.22V149Z" fill="#0C211A"/>
<path d="M228 164C228 161.791 229.791 160 232 160H274C276.209 160 278 161.791 278 164V175C278 177.209 276.209 179 274 179H232C229.791 179 228 177.209 228 175V164Z" fill="#F0F0F0"/>
<path d="M236.705 172H237.409V169.398H239.932V168.773H237.409V166.807H240.193V166.182H236.705V172ZM241.262 172H241.933V169.239C241.933 168.648 242.398 168.216 243.035 168.216C243.214 168.216 243.398 168.25 243.444 168.261V167.58C243.367 167.574 243.191 167.568 243.092 167.568C242.569 167.568 242.114 167.864 241.955 168.295H241.91V167.636H241.262V172ZM245.879 172.091C247.06 172.091 247.856 171.193 247.856 169.841C247.856 168.477 247.06 167.58 245.879 167.58C244.697 167.58 243.901 168.477 243.901 169.841C243.901 171.193 244.697 172.091 245.879 172.091ZM245.879 171.489C244.981 171.489 244.572 170.716 244.572 169.841C244.572 168.966 244.981 168.182 245.879 168.182C246.776 168.182 247.185 168.966 247.185 169.841C247.185 170.716 246.776 171.489 245.879 171.489ZM249.55 169.375C249.55 168.614 250.021 168.182 250.663 168.182C251.286 168.182 251.663 168.588 251.663 169.273V172H252.334V169.227C252.334 168.114 251.74 167.58 250.857 167.58C250.197 167.58 249.788 167.875 249.584 168.318H249.527V167.636H248.879V172H249.55V169.375ZM255.457 167.636H254.525V166.591H253.854V167.636H253.195V168.205H253.854V170.932C253.854 171.693 254.468 172.057 255.036 172.057C255.286 172.057 255.445 172.011 255.536 171.977L255.4 171.375C255.343 171.386 255.252 171.409 255.104 171.409C254.809 171.409 254.525 171.318 254.525 170.75V168.205H255.457V167.636ZM257.229 166.182H256.559V172H257.229V166.182ZM258.457 172H259.128V167.636H258.457V172ZM258.798 166.909C259.06 166.909 259.276 166.705 259.276 166.455C259.276 166.205 259.06 166 258.798 166C258.537 166 258.321 166.205 258.321 166.455C258.321 166.705 258.537 166.909 258.798 166.909ZM261.026 169.375C261.026 168.614 261.498 168.182 262.14 168.182C262.762 168.182 263.14 168.588 263.14 169.273V172H263.81V169.227C263.81 168.114 263.217 167.58 262.333 167.58C261.674 167.58 261.265 167.875 261.06 168.318H261.004V167.636H260.356V172H261.026V169.375ZM266.865 172.091C267.751 172.091 268.399 171.648 268.604 170.989L267.956 170.807C267.786 171.261 267.391 171.489 266.865 171.489C266.078 171.489 265.536 170.98 265.504 170.045H268.672V169.761C268.672 168.136 267.706 167.58 266.797 167.58C265.615 167.58 264.831 168.511 264.831 169.852C264.831 171.193 265.604 172.091 266.865 172.091ZM265.504 169.466C265.55 168.787 266.03 168.182 266.797 168.182C267.524 168.182 267.99 168.727 267.99 169.466H265.504Z" fill="#0C211A"/>
<path d="M204 88H484" stroke="#F0F0F0"/>
<rect x="229" y="355" width="232" height="16" rx="8" fill="#F0F0F0"/>
<rect x="228" y="375" width="172" height="16" rx="8" fill="#F0F0F0"/>
<rect x="228" y="395" width="195" height="16" rx="8" fill="#F0F0F0"/>
<rect x="44" y="140" width="24" height="24" rx="8" fill="#F0F0F0"/>
<rect x="44" y="176" width="24" height="24" rx="8" fill="#F0F0F0"/>
<rect x="44" y="212" width="24" height="24" rx="8" fill="#F0F0F0"/>
<rect x="44" y="248" width="24" height="24" rx="8" fill="#F0F0F0"/>
<defs>
<filter id="filter0_dd_1296_1143" x="0" y="86" width="501" height="276" filterUnits="userSpaceOnUse" color-interpolation-filters="sRGB">
<feFlood flood-opacity="0" result="BackgroundImageFix"/>
<feColorMatrix in="SourceAlpha" type="matrix" values="0 0 0 0 0 0 0 0 0 0 0 0 0 0 0 0 0 0 127 0" result="hardAlpha"/>
<feMorphology radius="4" operator="erode" in="SourceAlpha" result="effect1_dropShadow_1296_1143"/>
<feOffset dy="10"/>
<feGaussianBlur stdDeviation="16"/>
<feColorMatrix type="matrix" values="0 0 0 0 0 0 0 0 0 0.0612745 0 0 0 0 0.208333 0 0 0 0.1 0"/>
<feBlend mode="normal" in2="BackgroundImageFix" result="effect1_dropShadow_1296_1143"/>
<feColorMatrix in="SourceAlpha" type="matrix" values="0 0 0 0 0 0 0 0 0 0 0 0 0 0 0 0 0 0 127 0" result="hardAlpha"/>
<feMorphology radius="6" operator="erode" in="SourceAlpha" result="effect2_dropShadow_1296_1143"/>
<feOffset dy="6"/>
<feGaussianBlur stdDeviation="7"/>
<feColorMatrix type="matrix" values="0 0 0 0 0 0 0 0 0 0.294118 0 0 0 0 1 0 0 0 0.12 0"/>
<feBlend mode="normal" in2="effect1_dropShadow_1296_1143" result="effect2_dropShadow_1296_1143"/>
<feBlend mode="normal" in="SourceGraphic" in2="effect2_dropShadow_1296_1143" result="shape"/>
</filter>
<filter id="filter1_dd_1296_1143" x="156" y="0" width="376" height="491" filterUnits="userSpaceOnUse" color-interpolation-filters="sRGB">
<feFlood flood-opacity="0" result="BackgroundImageFix"/>
<feColorMatrix in="SourceAlpha" type="matrix" values="0 0 0 0 0 0 0 0 0 0 0 0 0 0 0 0 0 0 127 0" result="hardAlpha"/>
<feOffset dy="8"/>
<feGaussianBlur stdDeviation="24"/>
<feColorMatrix type="matrix" values="0 0 0 0 0.0941176 0 0 0 0 0.152941 0 0 0 0 0.294118 0 0 0 0.08 0"/>
<feBlend mode="normal" in2="BackgroundImageFix" result="effect1_dropShadow_1296_1143"/>
<feColorMatrix in="SourceAlpha" type="matrix" values="0 0 0 0 0 0 0 0 0 0 0 0 0 0 0 0 0 0 127 0" result="hardAlpha"/>
<feOffset dy="4"/>
<feGaussianBlur stdDeviation="14"/>
<feColorMatrix type="matrix" values="0 0 0 0 0.0941176 0 0 0 0 0.152941 0 0 0 0 0.294118 0 0 0 0.04 0"/>
<feBlend mode="normal" in2="effect1_dropShadow_1296_1143" result="effect2_dropShadow_1296_1143"/>
<feBlend mode="normal" in="SourceGraphic" in2="effect2_dropShadow_1296_1143" result="shape"/>
</filter>
</defs>
</svg>
