<svg width="528" height="448" viewBox="0 0 528 448" fill="none" xmlns="http://www.w3.org/2000/svg">
<g filter="url(#filter0_dd_1296_1138)">
<rect x="220" y="226" width="280" height="80" rx="8" fill="white"/>
</g>
<rect x="232" y="238" width="56" height="56" rx="8" fill="#F2F7FF"/>
<rect x="304" y="250" width="93" height="16" rx="8" fill="#C2C2C2"/>
<rect x="304" y="250" width="158" height="16" rx="8" fill="#F0F0F0"/>
<rect x="304" y="270" width="59" height="12" rx="6" fill="#DEDEDE"/>
<path d="M267.929 256.941C269.611 256.054 270.978 254.781 271.879 253.259C272.032 253.002 272.035 252.682 271.886 252.421C271.738 252.161 271.461 252 271.161 252H248.838C248.538 252 248.261 252.161 248.113 252.421C247.965 252.682 247.967 253.002 248.12 253.259C249.022 254.781 250.388 256.054 252.071 256.941C253.516 257.702 255.145 258.151 256.824 258.257V260.4H252.881C251.407 260.4 250.161 261.503 249.982 262.966L248.297 276.724C248.195 277.553 248.455 278.389 249.009 279.015C249.563 279.641 250.361 280 251.197 280H268.803C269.639 280 270.436 279.641 270.991 279.015C271.545 278.389 271.804 277.554 271.703 276.724L270.018 262.966C269.839 261.503 268.592 260.4 267.118 260.4H263.176V258.257C264.854 258.151 266.484 257.702 267.929 256.941ZM267.118 262.068C267.751 262.068 268.285 262.542 268.362 263.169L270.047 276.926C270.091 277.288 269.983 277.637 269.741 277.909C269.5 278.182 269.167 278.332 268.803 278.332H251.197C250.833 278.332 250.499 278.182 250.258 277.909C250.017 277.637 249.909 277.288 249.953 276.926L251.637 263.169C251.714 262.542 252.249 262.068 252.881 262.068H267.118V262.068ZM258.492 260.4V258.282H261.507V260.4H258.492ZM262.404 256.614H257.596C254.767 256.614 252.173 255.514 250.49 253.668H269.51C267.827 255.514 265.232 256.614 262.404 256.614Z" fill="#639FFF"/>
<path d="M260 263.364C256.231 263.364 253.165 266.431 253.165 270.2C253.165 273.969 256.231 277.036 260 277.036C263.77 277.036 266.836 273.969 266.836 270.2C266.836 266.431 263.77 263.364 260 263.364ZM260 275.368C257.151 275.368 254.833 273.049 254.833 270.2C254.833 267.351 257.151 265.033 260 265.033C262.85 265.033 265.168 267.351 265.168 270.2C265.168 273.049 262.85 275.368 260 275.368Z" fill="#639FFF"/>
<path d="M260.59 269.61C260.264 269.285 259.736 269.285 259.41 269.61L257.402 271.619C257.076 271.944 257.076 272.473 257.402 272.798C257.565 272.961 257.778 273.043 257.992 273.043C258.205 273.043 258.419 272.961 258.582 272.798L260.59 270.79C260.916 270.464 260.916 269.936 260.59 269.61Z" fill="#639FFF"/>
<g filter="url(#filter1_dd_1296_1138)">
<rect x="168" y="18" width="280" height="80" rx="8" fill="white"/>
</g>
<rect x="180" y="30" width="56" height="56" rx="8" fill="#F2F7FF"/>
<rect x="252" y="42" width="80" height="16" rx="8" fill="#F0F0F0"/>
<rect x="252" y="62" width="59" height="12" rx="6" fill="#DEDEDE"/>
<g clip-path="url(#clip0_1296_1138)">
<path d="M223.722 61.6145C223.061 60.9612 221.267 58.9524 220.91 57.5209C220.606 56.3055 220.941 54.9653 219.796 53.5208C220.37 51.3837 219.144 49.2003 217.146 48.6103C216.549 46.2606 214.148 44.8824 211.892 45.6903C209.851 43.1951 206.163 43.178 204.108 45.6903C201.852 44.8825 199.451 46.2603 198.854 48.6103C196.859 49.1994 195.63 51.3801 196.204 53.5208C195.06 54.9643 195.394 56.3075 195.091 57.5207C194.734 58.9474 192.939 60.9597 192.279 61.6144C191.77 62.1169 191.99 62.9826 192.677 63.1816C192.757 63.2048 193.748 63.4827 195.195 63.4827C196.383 63.4827 197.878 63.2949 199.426 62.6256L200.999 67.3624C201.469 68.7779 202.394 69.9883 203.672 70.863C207.739 73.6453 213.515 71.838 215.001 67.3622L216.574 62.6257C218.122 63.2951 219.617 63.4829 220.805 63.4828C222.252 63.4828 223.243 63.2049 223.324 63.1817C224.01 62.9827 224.23 62.1171 223.722 61.6145V61.6145ZM199.743 50.3418C200.201 50.3046 200.564 49.942 200.602 49.4846C200.744 47.7733 202.528 46.7742 203.911 47.6715C204.362 47.9641 204.968 47.8179 205.235 47.3491C206.501 45.1288 209.502 45.1336 210.765 47.3491C211.031 47.8174 211.637 47.9645 212.089 47.6715C213.474 46.7733 215.257 47.7748 215.398 49.4846C215.436 49.942 215.799 50.3047 216.257 50.3418C217.269 50.4238 218.063 51.3491 218.063 52.4481C218.063 52.9771 217.88 53.4835 217.549 53.8743C216.657 54.9269 215.087 54.7358 214.421 53.5174C214.047 52.7658 212.946 52.8487 212.689 53.6478C212.442 54.3441 211.817 54.8106 211.129 54.8106C210.33 54.8106 209.64 54.1938 209.49 53.3438C209.409 52.8907 209.015 52.5699 208.568 52.5699C208.4 52.5699 208.091 52.6555 207.568 52.5798C207.067 52.5071 206.599 52.8454 206.51 53.3438C206.36 54.1938 205.67 54.8106 204.871 54.8106C204.184 54.8106 203.561 54.3464 203.313 53.6531C203.062 52.853 201.963 52.7629 201.583 53.5106C201.232 54.1586 200.586 54.5604 199.893 54.5604C198.809 54.5604 197.938 53.6083 197.938 52.4481C197.938 51.3491 198.731 50.4238 199.743 50.3418V50.3418ZM194.821 61.5951C195.631 60.6103 196.593 59.2409 196.91 57.9753C197.17 56.9339 197.074 56.0717 197.298 55.3807C197.666 55.7343 198.094 56.0076 198.563 56.1874C198.563 60.185 198.543 59.9672 198.61 60.1687L198.832 60.8371C197.34 61.5145 195.881 61.6357 194.821 61.5951V61.5951ZM213.222 66.7714C212.595 68.6585 210.863 69.933 208.938 70.2368V66.6364L210.163 65.411C210.529 65.0449 210.529 64.4513 210.163 64.0852C209.797 63.7191 209.203 63.7191 208.837 64.0852L208 64.9223L207.163 64.0852C206.797 63.7191 206.203 63.7191 205.837 64.0852C205.471 64.4513 205.471 65.0449 205.837 65.411L207.063 66.6364V70.2374C205.051 69.9228 203.389 68.6092 202.779 66.7714L200.438 59.7214V56.394C201.128 56.2907 201.773 55.9941 202.307 55.5434C203.985 57.3681 206.871 56.9377 208 54.7343C209.131 56.9411 212.017 57.3656 213.693 55.5434C214.227 55.9941 214.872 56.2907 215.563 56.394V59.7214L213.222 66.7714ZM217.168 60.8371C217.396 60.1491 217.438 60.0742 217.438 59.8731V56.1873C217.906 56.0073 218.335 55.7339 218.702 55.3806C218.926 56.0705 218.83 56.9344 219.091 57.9754C219.407 59.2409 220.369 60.6102 221.179 61.595C220.12 61.6358 218.659 61.5144 217.168 60.8371Z" fill="#3A86FF"/>
<path d="M204.5 57.8105C203.982 57.8105 203.562 58.2303 203.562 58.7481V59.7481C203.562 60.2658 203.982 60.6856 204.5 60.6856C205.018 60.6856 205.438 60.2658 205.438 59.7481V58.7481C205.438 58.2302 205.018 57.8105 204.5 57.8105Z" fill="#3A86FF"/>
<path d="M211.5 57.8105C210.982 57.8105 210.562 58.2303 210.562 58.7481V59.7481C210.562 60.2658 210.982 60.6856 211.5 60.6856C212.018 60.6856 212.438 60.2658 212.438 59.7481V58.7481C212.438 58.2302 212.018 57.8105 211.5 57.8105Z" fill="#3A86FF"/>
</g>
<g filter="url(#filter2_dd_1296_1138)">
<rect x="28" y="122" width="280" height="80" rx="8" fill="white"/>
</g>
<rect x="40" y="134" width="56" height="56" rx="8" fill="#F2F7FF"/>
<rect x="112" y="146" width="93" height="16" rx="8" fill="#C2C2C2"/>
<rect x="112" y="146" width="114" height="16" rx="8" fill="#F0F0F0"/>
<rect x="112" y="166" width="59" height="12" rx="6" fill="#DEDEDE"/>
<g clip-path="url(#clip1_1296_1138)">
<path d="M80.3179 165.905C78.6949 164.282 76.3336 163.836 74.3043 164.566L71.6495 161.914C76.3998 157.141 73.6773 159.855 79.0706 154.462C80.5338 153 80.5348 150.624 79.0711 149.161C78.7203 148.8 78.2554 148.295 77.3781 148.295C76.8449 148.295 76.3429 148.503 75.9651 148.881C75.597 149.249 68.2308 156.648 68.0004 156.88C67.6496 156.528 60.344 149.19 60.0353 148.88C59.6579 148.503 59.1559 148.295 58.6228 148.295C57.8303 148.295 57.3898 148.687 56.9298 149.161C55.4672 150.623 55.466 152.999 56.9303 154.462C62.3243 159.856 59.6003 157.14 64.3514 161.914L61.6971 164.566C59.6678 163.835 57.3066 164.281 55.683 165.905C53.4393 168.15 53.439 171.78 55.683 174.025C59.2574 177.6 65.485 175.106 65.485 169.965C65.485 169.271 65.3625 168.596 65.1279 167.964L68.0004 165.092L70.873 167.964C69.4821 171.709 72.2516 175.704 76.2577 175.704C76.9926 175.704 77.7281 175.564 78.4193 175.285C82.2059 173.752 83.2333 168.822 80.3179 165.905ZM77.3781 149.936C77.5263 149.936 77.6018 150.001 77.7647 150.176C77.9015 150.321 78.527 150.826 78.527 151.811C78.527 152.375 78.3083 152.905 77.9107 153.301C71.4979 159.714 74.6371 156.6 68.987 162.251C68.2713 162.967 67.1439 162.688 66.7231 161.864C66.4534 161.337 66.5382 160.673 66.9774 160.232C77.8776 149.285 77.1577 149.936 77.3781 149.936ZM58.0901 153.301C57.2769 152.489 57.2665 151.171 58.0666 150.344C58.298 150.143 58.3885 149.936 58.6227 149.936C58.7195 149.936 58.8065 149.972 58.8743 150.04C59.1029 150.269 66.6747 157.873 66.8433 158.042L65.8152 159.074C65.4587 159.432 65.2099 159.857 65.0688 160.31C60.9539 156.172 63.1886 158.4 58.0901 153.301ZM56.8434 172.865C55.2406 171.263 55.2399 168.668 56.8434 167.065C59.1887 164.718 63.2573 165.996 63.7909 169.3C64.4327 173.231 59.6401 175.663 56.8434 172.865ZM64.3006 166.471C63.9859 166.062 63.6161 165.694 63.2019 165.382L65.509 163.077C65.9007 163.473 66.1757 163.779 66.7389 164.034L64.3006 166.471ZM69.262 164.034C69.8342 163.775 70.1138 163.457 70.4923 163.077L72.7989 165.382C72.3849 165.694 72.0151 166.062 71.7003 166.471L69.262 164.034ZM79.1575 172.865C76.3638 175.66 71.5673 173.236 72.21 169.3C72.741 166.011 76.8032 164.711 79.1575 167.065C80.7593 168.666 80.7622 171.263 79.1575 172.865Z" fill="#639FFF"/>
<path d="M76.257 167.504C74.0709 167.504 72.969 170.157 74.517 171.705C76.0712 173.259 78.7178 172.139 78.7178 169.965C78.7178 168.611 77.6234 167.504 76.257 167.504ZM76.257 170.785C75.5287 170.785 75.1612 169.901 75.6769 169.385C75.9951 169.067 76.5146 169.063 76.8372 169.385C77.3539 169.903 76.983 170.785 76.257 170.785Z" fill="#639FFF"/>
<path d="M61.0211 167.86C59.3926 166.868 57.283 168.044 57.283 169.965C57.283 172.167 59.949 173.24 61.4837 171.705C62.6135 170.575 62.3814 168.686 61.0211 167.86ZM59.1636 170.545C58.5485 169.929 59.2029 168.878 60.0407 169.2C60.2543 169.282 60.4267 169.455 60.5088 169.668C60.8281 170.499 59.7847 171.165 59.1636 170.545Z" fill="#639FFF"/>
</g>
<g filter="url(#filter3_dd_1296_1138)">
<rect x="80" y="330" width="280" height="80" rx="8" fill="white"/>
</g>
<rect x="92" y="342" width="56" height="56" rx="8" fill="#F2F7FF"/>
<rect x="164" y="354" width="93" height="16" rx="8" fill="#F0F0F0"/>
<rect x="164" y="374" width="59" height="12" rx="6" fill="#DEDEDE"/>
<g clip-path="url(#clip2_1296_1138)">
<path d="M117.132 374.868L120.999 363.267C121.142 362.837 120.91 362.372 120.48 362.229C120.051 362.086 119.586 362.318 119.443 362.748L115.576 374.349C115.433 374.779 115.665 375.243 116.095 375.387C116.181 375.415 116.268 375.429 116.354 375.429C116.697 375.429 117.018 375.212 117.132 374.868Z" fill="#639FFF"/>
<path d="M122.927 371.269C124.284 371.269 125.388 370.165 125.388 368.808C125.388 367.451 124.284 366.347 122.927 366.347C121.57 366.347 120.466 367.451 120.466 368.808C120.466 370.165 121.57 371.269 122.927 371.269ZM122.927 367.988C123.38 367.988 123.748 368.356 123.748 368.808C123.748 369.26 123.38 369.628 122.927 369.628C122.475 369.628 122.107 369.26 122.107 368.808C122.107 368.356 122.475 367.988 122.927 367.988Z" fill="#639FFF"/>
<path d="M113.647 366.347C112.29 366.347 111.186 367.451 111.186 368.808C111.186 370.165 112.29 371.269 113.647 371.269C115.004 371.269 116.108 370.165 116.108 368.808C116.108 367.451 115.004 366.347 113.647 366.347ZM113.647 369.628C113.194 369.628 112.826 369.26 112.826 368.808C112.826 368.356 113.194 367.988 113.647 367.988C114.099 367.988 114.467 368.356 114.467 368.808C114.467 369.26 114.099 369.628 113.647 369.628Z" fill="#639FFF"/>
<path d="M133.836 366.172L130.976 362.358L131.087 361.577C131.124 361.321 131.038 361.063 130.855 360.881L129.115 359.141L130.855 357.401C131.176 357.08 131.176 356.561 130.855 356.24C130.535 355.92 130.015 355.92 129.695 356.24L127.955 357.981L126.215 356.24C126.032 356.058 125.774 355.972 125.519 356.008L117.398 357.169C117.222 357.194 117.06 357.275 116.934 357.401L106.88 367.455C105.707 368.627 105.707 370.536 106.88 371.708L115.387 380.216C115.561 380.39 115.752 380.537 115.953 380.66V380.992C115.953 382.651 117.303 384 118.961 384H130.992C132.651 384 134 382.651 134 380.992V366.664C134 366.487 133.943 366.314 133.836 366.172ZM108.04 370.548C107.507 370.015 107.507 369.148 108.04 368.615L117.901 358.754L125.345 357.691L126.795 359.141L125.635 360.301L125.055 359.721C124.734 359.4 124.215 359.4 123.895 359.721C123.574 360.041 123.574 360.561 123.895 360.881L126.215 363.201C126.375 363.361 126.585 363.441 126.795 363.441C127.005 363.441 127.215 363.361 127.375 363.201C127.695 362.881 127.695 362.361 127.375 362.041L126.795 361.461L127.955 360.301L129.405 361.751L128.342 369.195L118.481 379.056C118.223 379.314 117.879 379.456 117.514 379.456C117.149 379.456 116.805 379.314 116.547 379.056L108.04 370.548ZM132.36 380.992C132.36 381.746 131.746 382.36 130.992 382.36H118.961C118.241 382.36 117.65 381.8 117.598 381.093C118.34 381.073 119.076 380.781 119.641 380.216L129.695 370.162C129.821 370.036 129.902 369.873 129.927 369.698L130.647 364.655L132.36 366.938V380.992Z" fill="#639FFF"/>
</g>
<defs>
<filter id="filter0_dd_1296_1138" x="192" y="208" width="336" height="136" filterUnits="userSpaceOnUse" color-interpolation-filters="sRGB">
<feFlood flood-opacity="0" result="BackgroundImageFix"/>
<feColorMatrix in="SourceAlpha" type="matrix" values="0 0 0 0 0 0 0 0 0 0 0 0 0 0 0 0 0 0 127 0" result="hardAlpha"/>
<feMorphology radius="4" operator="erode" in="SourceAlpha" result="effect1_dropShadow_1296_1138"/>
<feOffset dy="10"/>
<feGaussianBlur stdDeviation="16"/>
<feColorMatrix type="matrix" values="0 0 0 0 0 0 0 0 0 0.0612745 0 0 0 0 0.208333 0 0 0 0.1 0"/>
<feBlend mode="normal" in2="BackgroundImageFix" result="effect1_dropShadow_1296_1138"/>
<feColorMatrix in="SourceAlpha" type="matrix" values="0 0 0 0 0 0 0 0 0 0 0 0 0 0 0 0 0 0 127 0" result="hardAlpha"/>
<feMorphology radius="6" operator="erode" in="SourceAlpha" result="effect2_dropShadow_1296_1138"/>
<feOffset dy="6"/>
<feGaussianBlur stdDeviation="7"/>
<feColorMatrix type="matrix" values="0 0 0 0 0 0 0 0 0 0.294118 0 0 0 0 1 0 0 0 0.12 0"/>
<feBlend mode="normal" in2="effect1_dropShadow_1296_1138" result="effect2_dropShadow_1296_1138"/>
<feBlend mode="normal" in="SourceGraphic" in2="effect2_dropShadow_1296_1138" result="shape"/>
</filter>
<filter id="filter1_dd_1296_1138" x="140" y="0" width="336" height="136" filterUnits="userSpaceOnUse" color-interpolation-filters="sRGB">
<feFlood flood-opacity="0" result="BackgroundImageFix"/>
<feColorMatrix in="SourceAlpha" type="matrix" values="0 0 0 0 0 0 0 0 0 0 0 0 0 0 0 0 0 0 127 0" result="hardAlpha"/>
<feMorphology radius="4" operator="erode" in="SourceAlpha" result="effect1_dropShadow_1296_1138"/>
<feOffset dy="10"/>
<feGaussianBlur stdDeviation="16"/>
<feColorMatrix type="matrix" values="0 0 0 0 0 0 0 0 0 0.0612745 0 0 0 0 0.208333 0 0 0 0.1 0"/>
<feBlend mode="normal" in2="BackgroundImageFix" result="effect1_dropShadow_1296_1138"/>
<feColorMatrix in="SourceAlpha" type="matrix" values="0 0 0 0 0 0 0 0 0 0 0 0 0 0 0 0 0 0 127 0" result="hardAlpha"/>
<feMorphology radius="6" operator="erode" in="SourceAlpha" result="effect2_dropShadow_1296_1138"/>
<feOffset dy="6"/>
<feGaussianBlur stdDeviation="7"/>
<feColorMatrix type="matrix" values="0 0 0 0 0 0 0 0 0 0.294118 0 0 0 0 1 0 0 0 0.12 0"/>
<feBlend mode="normal" in2="effect1_dropShadow_1296_1138" result="effect2_dropShadow_1296_1138"/>
<feBlend mode="normal" in="SourceGraphic" in2="effect2_dropShadow_1296_1138" result="shape"/>
</filter>
<filter id="filter2_dd_1296_1138" x="0" y="104" width="336" height="136" filterUnits="userSpaceOnUse" color-interpolation-filters="sRGB">
<feFlood flood-opacity="0" result="BackgroundImageFix"/>
<feColorMatrix in="SourceAlpha" type="matrix" values="0 0 0 0 0 0 0 0 0 0 0 0 0 0 0 0 0 0 127 0" result="hardAlpha"/>
<feMorphology radius="4" operator="erode" in="SourceAlpha" result="effect1_dropShadow_1296_1138"/>
<feOffset dy="10"/>
<feGaussianBlur stdDeviation="16"/>
<feColorMatrix type="matrix" values="0 0 0 0 0 0 0 0 0 0.0612745 0 0 0 0 0.208333 0 0 0 0.1 0"/>
<feBlend mode="normal" in2="BackgroundImageFix" result="effect1_dropShadow_1296_1138"/>
<feColorMatrix in="SourceAlpha" type="matrix" values="0 0 0 0 0 0 0 0 0 0 0 0 0 0 0 0 0 0 127 0" result="hardAlpha"/>
<feMorphology radius="6" operator="erode" in="SourceAlpha" result="effect2_dropShadow_1296_1138"/>
<feOffset dy="6"/>
<feGaussianBlur stdDeviation="7"/>
<feColorMatrix type="matrix" values="0 0 0 0 0 0 0 0 0 0.294118 0 0 0 0 1 0 0 0 0.12 0"/>
<feBlend mode="normal" in2="effect1_dropShadow_1296_1138" result="effect2_dropShadow_1296_1138"/>
<feBlend mode="normal" in="SourceGraphic" in2="effect2_dropShadow_1296_1138" result="shape"/>
</filter>
<filter id="filter3_dd_1296_1138" x="52" y="312" width="336" height="136" filterUnits="userSpaceOnUse" color-interpolation-filters="sRGB">
<feFlood flood-opacity="0" result="BackgroundImageFix"/>
<feColorMatrix in="SourceAlpha" type="matrix" values="0 0 0 0 0 0 0 0 0 0 0 0 0 0 0 0 0 0 127 0" result="hardAlpha"/>
<feMorphology radius="4" operator="erode" in="SourceAlpha" result="effect1_dropShadow_1296_1138"/>
<feOffset dy="10"/>
<feGaussianBlur stdDeviation="16"/>
<feColorMatrix type="matrix" values="0 0 0 0 0 0 0 0 0 0.0612745 0 0 0 0 0.208333 0 0 0 0.1 0"/>
<feBlend mode="normal" in2="BackgroundImageFix" result="effect1_dropShadow_1296_1138"/>
<feColorMatrix in="SourceAlpha" type="matrix" values="0 0 0 0 0 0 0 0 0 0 0 0 0 0 0 0 0 0 127 0" result="hardAlpha"/>
<feMorphology radius="6" operator="erode" in="SourceAlpha" result="effect2_dropShadow_1296_1138"/>
<feOffset dy="6"/>
<feGaussianBlur stdDeviation="7"/>
<feColorMatrix type="matrix" values="0 0 0 0 0 0 0 0 0 0.294118 0 0 0 0 1 0 0 0 0.12 0"/>
<feBlend mode="normal" in2="effect1_dropShadow_1296_1138" result="effect2_dropShadow_1296_1138"/>
<feBlend mode="normal" in="SourceGraphic" in2="effect2_dropShadow_1296_1138" result="shape"/>
</filter>
<clipPath id="clip0_1296_1138">
<rect width="32" height="32" fill="white" transform="translate(192 42)"/>
</clipPath>
<clipPath id="clip1_1296_1138">
<rect width="28" height="28" fill="white" transform="translate(54 148)"/>
</clipPath>
<clipPath id="clip2_1296_1138">
<rect width="28" height="28" fill="white" transform="translate(106 356)"/>
</clipPath>
</defs>
</svg>
